%TF.GenerationSoftware,KiCad,Pcbnew,(6.0.4)*%
%TF.CreationDate,2022-04-23T12:46:15+05:30*%
%TF.ProjectId,led_50w,6c65645f-3530-4772-9e6b-696361645f70,rev?*%
%TF.SameCoordinates,Original*%
%TF.FileFunction,Paste,Top*%
%TF.FilePolarity,Positive*%
%FSLAX46Y46*%
G04 Gerber Fmt 4.6, Leading zero omitted, Abs format (unit mm)*
G04 Created by KiCad (PCBNEW (6.0.4)) date 2022-04-23 12:46:15*
%MOMM*%
%LPD*%
G01*
G04 APERTURE LIST*
%ADD10R,2.200000X1.800000*%
%ADD11R,1.100000X1.800000*%
G04 APERTURE END LIST*
D10*
%TO.C,LED24*%
X159927000Y-114416000D03*
D11*
X162167000Y-114416000D03*
%TD*%
D10*
%TO.C,LED23*%
X159927000Y-123364000D03*
D11*
X162167000Y-123364000D03*
%TD*%
D10*
%TO.C,LED22*%
X175260000Y-132588000D03*
D11*
X177500000Y-132588000D03*
%TD*%
D10*
%TO.C,LED21*%
X159927000Y-73036000D03*
D11*
X162167000Y-73036000D03*
%TD*%
D10*
%TO.C,LED20*%
X159927000Y-85540000D03*
D11*
X162167000Y-85540000D03*
%TD*%
D10*
%TO.C,LED19*%
X143935000Y-132080000D03*
D11*
X146175000Y-132080000D03*
%TD*%
%TO.C,LED18*%
X146155000Y-105468000D03*
D10*
X143915000Y-105468000D03*
%TD*%
%TO.C,LED17*%
X77895000Y-83820000D03*
D11*
X80135000Y-83820000D03*
%TD*%
D10*
%TO.C,LED16*%
X175675000Y-105976000D03*
D11*
X177915000Y-105976000D03*
%TD*%
D10*
%TO.C,LED15*%
X143915000Y-85032000D03*
D11*
X146155000Y-85032000D03*
%TD*%
%TO.C,LED14*%
X146155000Y-114416000D03*
D10*
X143915000Y-114416000D03*
%TD*%
%TO.C,LED1*%
X175675000Y-73036000D03*
D11*
X177915000Y-73036000D03*
%TD*%
D10*
%TO.C,LED12*%
X175675000Y-94996000D03*
D11*
X177915000Y-94996000D03*
%TD*%
D10*
%TO.C,LED11*%
X111252000Y-104452000D03*
D11*
X113492000Y-104452000D03*
%TD*%
D10*
%TO.C,LED10*%
X127273000Y-85032000D03*
D11*
X129513000Y-85032000D03*
%TD*%
D10*
%TO.C,LED9*%
X175675000Y-85852000D03*
D11*
X177915000Y-85852000D03*
%TD*%
D10*
%TO.C,LED8*%
X175675000Y-114416000D03*
D11*
X177915000Y-114416000D03*
%TD*%
D10*
%TO.C,LED7*%
X94497000Y-113480000D03*
D11*
X96737000Y-113480000D03*
%TD*%
D10*
%TO.C,LED6*%
X127679000Y-132080000D03*
D11*
X129919000Y-132080000D03*
%TD*%
%TO.C,LED5*%
X146155000Y-123364000D03*
D10*
X143915000Y-123364000D03*
%TD*%
%TO.C,LED4*%
X127781000Y-93980000D03*
D11*
X130021000Y-93980000D03*
%TD*%
D10*
%TO.C,LED3*%
X111139000Y-73036000D03*
D11*
X113379000Y-73036000D03*
%TD*%
D10*
%TO.C,LED2*%
X127781000Y-114416000D03*
D11*
X130021000Y-114416000D03*
%TD*%
D10*
%TO.C,LED13*%
X77895000Y-92964000D03*
D11*
X80135000Y-92964000D03*
%TD*%
D10*
%TO.C,LED49*%
X159927000Y-105976000D03*
D11*
X162167000Y-105976000D03*
%TD*%
D10*
%TO.C,LED48*%
X111139000Y-93980000D03*
D11*
X113379000Y-93980000D03*
%TD*%
D10*
%TO.C,LED47*%
X95005000Y-84328000D03*
D11*
X97245000Y-84328000D03*
%TD*%
D10*
%TO.C,LED46*%
X77895000Y-113284000D03*
D11*
X80135000Y-113284000D03*
%TD*%
D10*
%TO.C,LED45*%
X78017000Y-131296000D03*
D11*
X80257000Y-131296000D03*
%TD*%
D10*
%TO.C,LED44*%
X94497000Y-122428000D03*
D11*
X96737000Y-122428000D03*
%TD*%
D10*
%TO.C,LED43*%
X95005000Y-73036000D03*
D11*
X97245000Y-73036000D03*
%TD*%
D10*
%TO.C,LED42*%
X95005000Y-93472000D03*
D11*
X97245000Y-93472000D03*
%TD*%
D10*
%TO.C,LED41*%
X143915000Y-73036000D03*
D11*
X146155000Y-73036000D03*
%TD*%
D10*
%TO.C,LED40*%
X110915000Y-113792000D03*
D11*
X113155000Y-113792000D03*
%TD*%
D10*
%TO.C,LED39*%
X111139000Y-84524000D03*
D11*
X113379000Y-84524000D03*
%TD*%
D10*
%TO.C,LED25*%
X175431000Y-123952000D03*
D11*
X177671000Y-123952000D03*
%TD*%
D10*
%TO.C,LED37*%
X143915000Y-94488000D03*
D11*
X146155000Y-94488000D03*
%TD*%
D10*
%TO.C,LED36*%
X94659000Y-131572000D03*
D11*
X96899000Y-131572000D03*
%TD*%
%TO.C,LED35*%
X113268000Y-131572000D03*
D10*
X111028000Y-131572000D03*
%TD*%
%TO.C,LED34*%
X77968000Y-73624000D03*
D11*
X80208000Y-73624000D03*
%TD*%
D10*
%TO.C,LED33*%
X94497000Y-103944000D03*
D11*
X96737000Y-103944000D03*
%TD*%
D10*
%TO.C,LED32*%
X159927000Y-94996000D03*
D11*
X162167000Y-94996000D03*
%TD*%
D10*
%TO.C,LED31*%
X127781000Y-104960000D03*
D11*
X130021000Y-104960000D03*
%TD*%
D10*
%TO.C,LED30*%
X127781000Y-123364000D03*
D11*
X130021000Y-123364000D03*
%TD*%
D10*
%TO.C,LED29*%
X77895000Y-122428000D03*
D11*
X80135000Y-122428000D03*
%TD*%
D10*
%TO.C,LED28*%
X127273000Y-73036000D03*
D11*
X129513000Y-73036000D03*
%TD*%
D10*
%TO.C,LED27*%
X77895000Y-103632000D03*
D11*
X80135000Y-103632000D03*
%TD*%
D10*
%TO.C,LED26*%
X160020000Y-132080000D03*
D11*
X162260000Y-132080000D03*
%TD*%
D10*
%TO.C,LED38*%
X111252000Y-122936000D03*
D11*
X113492000Y-122936000D03*
%TD*%
M02*
