%TF.GenerationSoftware,KiCad,Pcbnew,(6.0.4)*%
%TF.CreationDate,2022-04-23T12:46:16+05:30*%
%TF.ProjectId,led_50w,6c65645f-3530-4772-9e6b-696361645f70,rev?*%
%TF.SameCoordinates,Original*%
%TF.FileFunction,Legend,Top*%
%TF.FilePolarity,Positive*%
%FSLAX46Y46*%
G04 Gerber Fmt 4.6, Leading zero omitted, Abs format (unit mm)*
G04 Created by KiCad (PCBNEW (6.0.4)) date 2022-04-23 12:46:16*
%MOMM*%
%LPD*%
G01*
G04 APERTURE LIST*
%ADD10C,0.150000*%
%ADD11C,0.254000*%
%ADD12C,0.120000*%
%ADD13C,0.200000*%
G04 APERTURE END LIST*
D10*
%TO.C,GND*%
X184150095Y-74318000D02*
X184054857Y-74270380D01*
X183912000Y-74270380D01*
X183769142Y-74318000D01*
X183673904Y-74413238D01*
X183626285Y-74508476D01*
X183578666Y-74698952D01*
X183578666Y-74841809D01*
X183626285Y-75032285D01*
X183673904Y-75127523D01*
X183769142Y-75222761D01*
X183912000Y-75270380D01*
X184007238Y-75270380D01*
X184150095Y-75222761D01*
X184197714Y-75175142D01*
X184197714Y-74841809D01*
X184007238Y-74841809D01*
X184626285Y-75270380D02*
X184626285Y-74270380D01*
X185197714Y-75270380D01*
X185197714Y-74270380D01*
X185673904Y-75270380D02*
X185673904Y-74270380D01*
X185912000Y-74270380D01*
X186054857Y-74318000D01*
X186150095Y-74413238D01*
X186197714Y-74508476D01*
X186245333Y-74698952D01*
X186245333Y-74841809D01*
X186197714Y-75032285D01*
X186150095Y-75127523D01*
X186054857Y-75222761D01*
X185912000Y-75270380D01*
X185673904Y-75270380D01*
%TO.C,+VE*%
X183142095Y-126705428D02*
X183904000Y-126705428D01*
X183523047Y-127086380D02*
X183523047Y-126324476D01*
X184237333Y-126086380D02*
X184570666Y-127086380D01*
X184904000Y-126086380D01*
X185237333Y-126562571D02*
X185570666Y-126562571D01*
X185713523Y-127086380D02*
X185237333Y-127086380D01*
X185237333Y-126086380D01*
X185713523Y-126086380D01*
D11*
%TO.C,LED24*%
X158746047Y-114990523D02*
X158141285Y-114990523D01*
X158141285Y-113720523D01*
X159169380Y-114325285D02*
X159592714Y-114325285D01*
X159774142Y-114990523D02*
X159169380Y-114990523D01*
X159169380Y-113720523D01*
X159774142Y-113720523D01*
X160318428Y-114990523D02*
X160318428Y-113720523D01*
X160620809Y-113720523D01*
X160802238Y-113781000D01*
X160923190Y-113901952D01*
X160983666Y-114022904D01*
X161044142Y-114264809D01*
X161044142Y-114446238D01*
X160983666Y-114688142D01*
X160923190Y-114809095D01*
X160802238Y-114930047D01*
X160620809Y-114990523D01*
X160318428Y-114990523D01*
X161527952Y-113841476D02*
X161588428Y-113781000D01*
X161709380Y-113720523D01*
X162011761Y-113720523D01*
X162132714Y-113781000D01*
X162193190Y-113841476D01*
X162253666Y-113962428D01*
X162253666Y-114083380D01*
X162193190Y-114264809D01*
X161467476Y-114990523D01*
X162253666Y-114990523D01*
X163342238Y-114143857D02*
X163342238Y-114990523D01*
X163039857Y-113660047D02*
X162737476Y-114567190D01*
X163523666Y-114567190D01*
%TO.C,LED23*%
X158746047Y-123938523D02*
X158141285Y-123938523D01*
X158141285Y-122668523D01*
X159169380Y-123273285D02*
X159592714Y-123273285D01*
X159774142Y-123938523D02*
X159169380Y-123938523D01*
X159169380Y-122668523D01*
X159774142Y-122668523D01*
X160318428Y-123938523D02*
X160318428Y-122668523D01*
X160620809Y-122668523D01*
X160802238Y-122729000D01*
X160923190Y-122849952D01*
X160983666Y-122970904D01*
X161044142Y-123212809D01*
X161044142Y-123394238D01*
X160983666Y-123636142D01*
X160923190Y-123757095D01*
X160802238Y-123878047D01*
X160620809Y-123938523D01*
X160318428Y-123938523D01*
X161527952Y-122789476D02*
X161588428Y-122729000D01*
X161709380Y-122668523D01*
X162011761Y-122668523D01*
X162132714Y-122729000D01*
X162193190Y-122789476D01*
X162253666Y-122910428D01*
X162253666Y-123031380D01*
X162193190Y-123212809D01*
X161467476Y-123938523D01*
X162253666Y-123938523D01*
X162677000Y-122668523D02*
X163463190Y-122668523D01*
X163039857Y-123152333D01*
X163221285Y-123152333D01*
X163342238Y-123212809D01*
X163402714Y-123273285D01*
X163463190Y-123394238D01*
X163463190Y-123696619D01*
X163402714Y-123817571D01*
X163342238Y-123878047D01*
X163221285Y-123938523D01*
X162858428Y-123938523D01*
X162737476Y-123878047D01*
X162677000Y-123817571D01*
%TO.C,LED22*%
X174079047Y-133162523D02*
X173474285Y-133162523D01*
X173474285Y-131892523D01*
X174502380Y-132497285D02*
X174925714Y-132497285D01*
X175107142Y-133162523D02*
X174502380Y-133162523D01*
X174502380Y-131892523D01*
X175107142Y-131892523D01*
X175651428Y-133162523D02*
X175651428Y-131892523D01*
X175953809Y-131892523D01*
X176135238Y-131953000D01*
X176256190Y-132073952D01*
X176316666Y-132194904D01*
X176377142Y-132436809D01*
X176377142Y-132618238D01*
X176316666Y-132860142D01*
X176256190Y-132981095D01*
X176135238Y-133102047D01*
X175953809Y-133162523D01*
X175651428Y-133162523D01*
X176860952Y-132013476D02*
X176921428Y-131953000D01*
X177042380Y-131892523D01*
X177344761Y-131892523D01*
X177465714Y-131953000D01*
X177526190Y-132013476D01*
X177586666Y-132134428D01*
X177586666Y-132255380D01*
X177526190Y-132436809D01*
X176800476Y-133162523D01*
X177586666Y-133162523D01*
X178070476Y-132013476D02*
X178130952Y-131953000D01*
X178251904Y-131892523D01*
X178554285Y-131892523D01*
X178675238Y-131953000D01*
X178735714Y-132013476D01*
X178796190Y-132134428D01*
X178796190Y-132255380D01*
X178735714Y-132436809D01*
X178010000Y-133162523D01*
X178796190Y-133162523D01*
%TO.C,LED21*%
X158746047Y-73610523D02*
X158141285Y-73610523D01*
X158141285Y-72340523D01*
X159169380Y-72945285D02*
X159592714Y-72945285D01*
X159774142Y-73610523D02*
X159169380Y-73610523D01*
X159169380Y-72340523D01*
X159774142Y-72340523D01*
X160318428Y-73610523D02*
X160318428Y-72340523D01*
X160620809Y-72340523D01*
X160802238Y-72401000D01*
X160923190Y-72521952D01*
X160983666Y-72642904D01*
X161044142Y-72884809D01*
X161044142Y-73066238D01*
X160983666Y-73308142D01*
X160923190Y-73429095D01*
X160802238Y-73550047D01*
X160620809Y-73610523D01*
X160318428Y-73610523D01*
X161527952Y-72461476D02*
X161588428Y-72401000D01*
X161709380Y-72340523D01*
X162011761Y-72340523D01*
X162132714Y-72401000D01*
X162193190Y-72461476D01*
X162253666Y-72582428D01*
X162253666Y-72703380D01*
X162193190Y-72884809D01*
X161467476Y-73610523D01*
X162253666Y-73610523D01*
X163463190Y-73610523D02*
X162737476Y-73610523D01*
X163100333Y-73610523D02*
X163100333Y-72340523D01*
X162979380Y-72521952D01*
X162858428Y-72642904D01*
X162737476Y-72703380D01*
%TO.C,LED20*%
X158746047Y-86114523D02*
X158141285Y-86114523D01*
X158141285Y-84844523D01*
X159169380Y-85449285D02*
X159592714Y-85449285D01*
X159774142Y-86114523D02*
X159169380Y-86114523D01*
X159169380Y-84844523D01*
X159774142Y-84844523D01*
X160318428Y-86114523D02*
X160318428Y-84844523D01*
X160620809Y-84844523D01*
X160802238Y-84905000D01*
X160923190Y-85025952D01*
X160983666Y-85146904D01*
X161044142Y-85388809D01*
X161044142Y-85570238D01*
X160983666Y-85812142D01*
X160923190Y-85933095D01*
X160802238Y-86054047D01*
X160620809Y-86114523D01*
X160318428Y-86114523D01*
X161527952Y-84965476D02*
X161588428Y-84905000D01*
X161709380Y-84844523D01*
X162011761Y-84844523D01*
X162132714Y-84905000D01*
X162193190Y-84965476D01*
X162253666Y-85086428D01*
X162253666Y-85207380D01*
X162193190Y-85388809D01*
X161467476Y-86114523D01*
X162253666Y-86114523D01*
X163039857Y-84844523D02*
X163160809Y-84844523D01*
X163281761Y-84905000D01*
X163342238Y-84965476D01*
X163402714Y-85086428D01*
X163463190Y-85328333D01*
X163463190Y-85630714D01*
X163402714Y-85872619D01*
X163342238Y-85993571D01*
X163281761Y-86054047D01*
X163160809Y-86114523D01*
X163039857Y-86114523D01*
X162918904Y-86054047D01*
X162858428Y-85993571D01*
X162797952Y-85872619D01*
X162737476Y-85630714D01*
X162737476Y-85328333D01*
X162797952Y-85086428D01*
X162858428Y-84965476D01*
X162918904Y-84905000D01*
X163039857Y-84844523D01*
%TO.C,LED19*%
X142754047Y-132654523D02*
X142149285Y-132654523D01*
X142149285Y-131384523D01*
X143177380Y-131989285D02*
X143600714Y-131989285D01*
X143782142Y-132654523D02*
X143177380Y-132654523D01*
X143177380Y-131384523D01*
X143782142Y-131384523D01*
X144326428Y-132654523D02*
X144326428Y-131384523D01*
X144628809Y-131384523D01*
X144810238Y-131445000D01*
X144931190Y-131565952D01*
X144991666Y-131686904D01*
X145052142Y-131928809D01*
X145052142Y-132110238D01*
X144991666Y-132352142D01*
X144931190Y-132473095D01*
X144810238Y-132594047D01*
X144628809Y-132654523D01*
X144326428Y-132654523D01*
X146261666Y-132654523D02*
X145535952Y-132654523D01*
X145898809Y-132654523D02*
X145898809Y-131384523D01*
X145777857Y-131565952D01*
X145656904Y-131686904D01*
X145535952Y-131747380D01*
X146866428Y-132654523D02*
X147108333Y-132654523D01*
X147229285Y-132594047D01*
X147289761Y-132533571D01*
X147410714Y-132352142D01*
X147471190Y-132110238D01*
X147471190Y-131626428D01*
X147410714Y-131505476D01*
X147350238Y-131445000D01*
X147229285Y-131384523D01*
X146987380Y-131384523D01*
X146866428Y-131445000D01*
X146805952Y-131505476D01*
X146745476Y-131626428D01*
X146745476Y-131928809D01*
X146805952Y-132049761D01*
X146866428Y-132110238D01*
X146987380Y-132170714D01*
X147229285Y-132170714D01*
X147350238Y-132110238D01*
X147410714Y-132049761D01*
X147471190Y-131928809D01*
%TO.C,LED18*%
X142734047Y-106042523D02*
X142129285Y-106042523D01*
X142129285Y-104772523D01*
X143157380Y-105377285D02*
X143580714Y-105377285D01*
X143762142Y-106042523D02*
X143157380Y-106042523D01*
X143157380Y-104772523D01*
X143762142Y-104772523D01*
X144306428Y-106042523D02*
X144306428Y-104772523D01*
X144608809Y-104772523D01*
X144790238Y-104833000D01*
X144911190Y-104953952D01*
X144971666Y-105074904D01*
X145032142Y-105316809D01*
X145032142Y-105498238D01*
X144971666Y-105740142D01*
X144911190Y-105861095D01*
X144790238Y-105982047D01*
X144608809Y-106042523D01*
X144306428Y-106042523D01*
X146241666Y-106042523D02*
X145515952Y-106042523D01*
X145878809Y-106042523D02*
X145878809Y-104772523D01*
X145757857Y-104953952D01*
X145636904Y-105074904D01*
X145515952Y-105135380D01*
X146967380Y-105316809D02*
X146846428Y-105256333D01*
X146785952Y-105195857D01*
X146725476Y-105074904D01*
X146725476Y-105014428D01*
X146785952Y-104893476D01*
X146846428Y-104833000D01*
X146967380Y-104772523D01*
X147209285Y-104772523D01*
X147330238Y-104833000D01*
X147390714Y-104893476D01*
X147451190Y-105014428D01*
X147451190Y-105074904D01*
X147390714Y-105195857D01*
X147330238Y-105256333D01*
X147209285Y-105316809D01*
X146967380Y-105316809D01*
X146846428Y-105377285D01*
X146785952Y-105437761D01*
X146725476Y-105558714D01*
X146725476Y-105800619D01*
X146785952Y-105921571D01*
X146846428Y-105982047D01*
X146967380Y-106042523D01*
X147209285Y-106042523D01*
X147330238Y-105982047D01*
X147390714Y-105921571D01*
X147451190Y-105800619D01*
X147451190Y-105558714D01*
X147390714Y-105437761D01*
X147330238Y-105377285D01*
X147209285Y-105316809D01*
%TO.C,LED17*%
X76714047Y-84394523D02*
X76109285Y-84394523D01*
X76109285Y-83124523D01*
X77137380Y-83729285D02*
X77560714Y-83729285D01*
X77742142Y-84394523D02*
X77137380Y-84394523D01*
X77137380Y-83124523D01*
X77742142Y-83124523D01*
X78286428Y-84394523D02*
X78286428Y-83124523D01*
X78588809Y-83124523D01*
X78770238Y-83185000D01*
X78891190Y-83305952D01*
X78951666Y-83426904D01*
X79012142Y-83668809D01*
X79012142Y-83850238D01*
X78951666Y-84092142D01*
X78891190Y-84213095D01*
X78770238Y-84334047D01*
X78588809Y-84394523D01*
X78286428Y-84394523D01*
X80221666Y-84394523D02*
X79495952Y-84394523D01*
X79858809Y-84394523D02*
X79858809Y-83124523D01*
X79737857Y-83305952D01*
X79616904Y-83426904D01*
X79495952Y-83487380D01*
X80645000Y-83124523D02*
X81491666Y-83124523D01*
X80947380Y-84394523D01*
%TO.C,LED16*%
X174494047Y-106550523D02*
X173889285Y-106550523D01*
X173889285Y-105280523D01*
X174917380Y-105885285D02*
X175340714Y-105885285D01*
X175522142Y-106550523D02*
X174917380Y-106550523D01*
X174917380Y-105280523D01*
X175522142Y-105280523D01*
X176066428Y-106550523D02*
X176066428Y-105280523D01*
X176368809Y-105280523D01*
X176550238Y-105341000D01*
X176671190Y-105461952D01*
X176731666Y-105582904D01*
X176792142Y-105824809D01*
X176792142Y-106006238D01*
X176731666Y-106248142D01*
X176671190Y-106369095D01*
X176550238Y-106490047D01*
X176368809Y-106550523D01*
X176066428Y-106550523D01*
X178001666Y-106550523D02*
X177275952Y-106550523D01*
X177638809Y-106550523D02*
X177638809Y-105280523D01*
X177517857Y-105461952D01*
X177396904Y-105582904D01*
X177275952Y-105643380D01*
X179090238Y-105280523D02*
X178848333Y-105280523D01*
X178727380Y-105341000D01*
X178666904Y-105401476D01*
X178545952Y-105582904D01*
X178485476Y-105824809D01*
X178485476Y-106308619D01*
X178545952Y-106429571D01*
X178606428Y-106490047D01*
X178727380Y-106550523D01*
X178969285Y-106550523D01*
X179090238Y-106490047D01*
X179150714Y-106429571D01*
X179211190Y-106308619D01*
X179211190Y-106006238D01*
X179150714Y-105885285D01*
X179090238Y-105824809D01*
X178969285Y-105764333D01*
X178727380Y-105764333D01*
X178606428Y-105824809D01*
X178545952Y-105885285D01*
X178485476Y-106006238D01*
%TO.C,LED15*%
X142734047Y-85606523D02*
X142129285Y-85606523D01*
X142129285Y-84336523D01*
X143157380Y-84941285D02*
X143580714Y-84941285D01*
X143762142Y-85606523D02*
X143157380Y-85606523D01*
X143157380Y-84336523D01*
X143762142Y-84336523D01*
X144306428Y-85606523D02*
X144306428Y-84336523D01*
X144608809Y-84336523D01*
X144790238Y-84397000D01*
X144911190Y-84517952D01*
X144971666Y-84638904D01*
X145032142Y-84880809D01*
X145032142Y-85062238D01*
X144971666Y-85304142D01*
X144911190Y-85425095D01*
X144790238Y-85546047D01*
X144608809Y-85606523D01*
X144306428Y-85606523D01*
X146241666Y-85606523D02*
X145515952Y-85606523D01*
X145878809Y-85606523D02*
X145878809Y-84336523D01*
X145757857Y-84517952D01*
X145636904Y-84638904D01*
X145515952Y-84699380D01*
X147390714Y-84336523D02*
X146785952Y-84336523D01*
X146725476Y-84941285D01*
X146785952Y-84880809D01*
X146906904Y-84820333D01*
X147209285Y-84820333D01*
X147330238Y-84880809D01*
X147390714Y-84941285D01*
X147451190Y-85062238D01*
X147451190Y-85364619D01*
X147390714Y-85485571D01*
X147330238Y-85546047D01*
X147209285Y-85606523D01*
X146906904Y-85606523D01*
X146785952Y-85546047D01*
X146725476Y-85485571D01*
%TO.C,LED14*%
X142734047Y-114990523D02*
X142129285Y-114990523D01*
X142129285Y-113720523D01*
X143157380Y-114325285D02*
X143580714Y-114325285D01*
X143762142Y-114990523D02*
X143157380Y-114990523D01*
X143157380Y-113720523D01*
X143762142Y-113720523D01*
X144306428Y-114990523D02*
X144306428Y-113720523D01*
X144608809Y-113720523D01*
X144790238Y-113781000D01*
X144911190Y-113901952D01*
X144971666Y-114022904D01*
X145032142Y-114264809D01*
X145032142Y-114446238D01*
X144971666Y-114688142D01*
X144911190Y-114809095D01*
X144790238Y-114930047D01*
X144608809Y-114990523D01*
X144306428Y-114990523D01*
X146241666Y-114990523D02*
X145515952Y-114990523D01*
X145878809Y-114990523D02*
X145878809Y-113720523D01*
X145757857Y-113901952D01*
X145636904Y-114022904D01*
X145515952Y-114083380D01*
X147330238Y-114143857D02*
X147330238Y-114990523D01*
X147027857Y-113660047D02*
X146725476Y-114567190D01*
X147511666Y-114567190D01*
%TO.C,LED1*%
X175098809Y-73610523D02*
X174494047Y-73610523D01*
X174494047Y-72340523D01*
X175522142Y-72945285D02*
X175945476Y-72945285D01*
X176126904Y-73610523D02*
X175522142Y-73610523D01*
X175522142Y-72340523D01*
X176126904Y-72340523D01*
X176671190Y-73610523D02*
X176671190Y-72340523D01*
X176973571Y-72340523D01*
X177155000Y-72401000D01*
X177275952Y-72521952D01*
X177336428Y-72642904D01*
X177396904Y-72884809D01*
X177396904Y-73066238D01*
X177336428Y-73308142D01*
X177275952Y-73429095D01*
X177155000Y-73550047D01*
X176973571Y-73610523D01*
X176671190Y-73610523D01*
X178606428Y-73610523D02*
X177880714Y-73610523D01*
X178243571Y-73610523D02*
X178243571Y-72340523D01*
X178122619Y-72521952D01*
X178001666Y-72642904D01*
X177880714Y-72703380D01*
%TO.C,LED12*%
X174494047Y-95570523D02*
X173889285Y-95570523D01*
X173889285Y-94300523D01*
X174917380Y-94905285D02*
X175340714Y-94905285D01*
X175522142Y-95570523D02*
X174917380Y-95570523D01*
X174917380Y-94300523D01*
X175522142Y-94300523D01*
X176066428Y-95570523D02*
X176066428Y-94300523D01*
X176368809Y-94300523D01*
X176550238Y-94361000D01*
X176671190Y-94481952D01*
X176731666Y-94602904D01*
X176792142Y-94844809D01*
X176792142Y-95026238D01*
X176731666Y-95268142D01*
X176671190Y-95389095D01*
X176550238Y-95510047D01*
X176368809Y-95570523D01*
X176066428Y-95570523D01*
X178001666Y-95570523D02*
X177275952Y-95570523D01*
X177638809Y-95570523D02*
X177638809Y-94300523D01*
X177517857Y-94481952D01*
X177396904Y-94602904D01*
X177275952Y-94663380D01*
X178485476Y-94421476D02*
X178545952Y-94361000D01*
X178666904Y-94300523D01*
X178969285Y-94300523D01*
X179090238Y-94361000D01*
X179150714Y-94421476D01*
X179211190Y-94542428D01*
X179211190Y-94663380D01*
X179150714Y-94844809D01*
X178425000Y-95570523D01*
X179211190Y-95570523D01*
%TO.C,LED11*%
X110071047Y-105026523D02*
X109466285Y-105026523D01*
X109466285Y-103756523D01*
X110494380Y-104361285D02*
X110917714Y-104361285D01*
X111099142Y-105026523D02*
X110494380Y-105026523D01*
X110494380Y-103756523D01*
X111099142Y-103756523D01*
X111643428Y-105026523D02*
X111643428Y-103756523D01*
X111945809Y-103756523D01*
X112127238Y-103817000D01*
X112248190Y-103937952D01*
X112308666Y-104058904D01*
X112369142Y-104300809D01*
X112369142Y-104482238D01*
X112308666Y-104724142D01*
X112248190Y-104845095D01*
X112127238Y-104966047D01*
X111945809Y-105026523D01*
X111643428Y-105026523D01*
X113578666Y-105026523D02*
X112852952Y-105026523D01*
X113215809Y-105026523D02*
X113215809Y-103756523D01*
X113094857Y-103937952D01*
X112973904Y-104058904D01*
X112852952Y-104119380D01*
X114788190Y-105026523D02*
X114062476Y-105026523D01*
X114425333Y-105026523D02*
X114425333Y-103756523D01*
X114304380Y-103937952D01*
X114183428Y-104058904D01*
X114062476Y-104119380D01*
%TO.C,LED10*%
X126092047Y-85606523D02*
X125487285Y-85606523D01*
X125487285Y-84336523D01*
X126515380Y-84941285D02*
X126938714Y-84941285D01*
X127120142Y-85606523D02*
X126515380Y-85606523D01*
X126515380Y-84336523D01*
X127120142Y-84336523D01*
X127664428Y-85606523D02*
X127664428Y-84336523D01*
X127966809Y-84336523D01*
X128148238Y-84397000D01*
X128269190Y-84517952D01*
X128329666Y-84638904D01*
X128390142Y-84880809D01*
X128390142Y-85062238D01*
X128329666Y-85304142D01*
X128269190Y-85425095D01*
X128148238Y-85546047D01*
X127966809Y-85606523D01*
X127664428Y-85606523D01*
X129599666Y-85606523D02*
X128873952Y-85606523D01*
X129236809Y-85606523D02*
X129236809Y-84336523D01*
X129115857Y-84517952D01*
X128994904Y-84638904D01*
X128873952Y-84699380D01*
X130385857Y-84336523D02*
X130506809Y-84336523D01*
X130627761Y-84397000D01*
X130688238Y-84457476D01*
X130748714Y-84578428D01*
X130809190Y-84820333D01*
X130809190Y-85122714D01*
X130748714Y-85364619D01*
X130688238Y-85485571D01*
X130627761Y-85546047D01*
X130506809Y-85606523D01*
X130385857Y-85606523D01*
X130264904Y-85546047D01*
X130204428Y-85485571D01*
X130143952Y-85364619D01*
X130083476Y-85122714D01*
X130083476Y-84820333D01*
X130143952Y-84578428D01*
X130204428Y-84457476D01*
X130264904Y-84397000D01*
X130385857Y-84336523D01*
%TO.C,LED9*%
X175098809Y-96586523D02*
X174494047Y-96586523D01*
X174494047Y-95316523D01*
X175522142Y-95921285D02*
X175945476Y-95921285D01*
X176126904Y-96586523D02*
X175522142Y-96586523D01*
X175522142Y-95316523D01*
X176126904Y-95316523D01*
X176671190Y-96586523D02*
X176671190Y-95316523D01*
X176973571Y-95316523D01*
X177155000Y-95377000D01*
X177275952Y-95497952D01*
X177336428Y-95618904D01*
X177396904Y-95860809D01*
X177396904Y-96042238D01*
X177336428Y-96284142D01*
X177275952Y-96405095D01*
X177155000Y-96526047D01*
X176973571Y-96586523D01*
X176671190Y-96586523D01*
X178001666Y-96586523D02*
X178243571Y-96586523D01*
X178364523Y-96526047D01*
X178425000Y-96465571D01*
X178545952Y-96284142D01*
X178606428Y-96042238D01*
X178606428Y-95558428D01*
X178545952Y-95437476D01*
X178485476Y-95377000D01*
X178364523Y-95316523D01*
X178122619Y-95316523D01*
X178001666Y-95377000D01*
X177941190Y-95437476D01*
X177880714Y-95558428D01*
X177880714Y-95860809D01*
X177941190Y-95981761D01*
X178001666Y-96042238D01*
X178122619Y-96102714D01*
X178364523Y-96102714D01*
X178485476Y-96042238D01*
X178545952Y-95981761D01*
X178606428Y-95860809D01*
%TO.C,LED8*%
X175098809Y-114990523D02*
X174494047Y-114990523D01*
X174494047Y-113720523D01*
X175522142Y-114325285D02*
X175945476Y-114325285D01*
X176126904Y-114990523D02*
X175522142Y-114990523D01*
X175522142Y-113720523D01*
X176126904Y-113720523D01*
X176671190Y-114990523D02*
X176671190Y-113720523D01*
X176973571Y-113720523D01*
X177155000Y-113781000D01*
X177275952Y-113901952D01*
X177336428Y-114022904D01*
X177396904Y-114264809D01*
X177396904Y-114446238D01*
X177336428Y-114688142D01*
X177275952Y-114809095D01*
X177155000Y-114930047D01*
X176973571Y-114990523D01*
X176671190Y-114990523D01*
X178122619Y-114264809D02*
X178001666Y-114204333D01*
X177941190Y-114143857D01*
X177880714Y-114022904D01*
X177880714Y-113962428D01*
X177941190Y-113841476D01*
X178001666Y-113781000D01*
X178122619Y-113720523D01*
X178364523Y-113720523D01*
X178485476Y-113781000D01*
X178545952Y-113841476D01*
X178606428Y-113962428D01*
X178606428Y-114022904D01*
X178545952Y-114143857D01*
X178485476Y-114204333D01*
X178364523Y-114264809D01*
X178122619Y-114264809D01*
X178001666Y-114325285D01*
X177941190Y-114385761D01*
X177880714Y-114506714D01*
X177880714Y-114748619D01*
X177941190Y-114869571D01*
X178001666Y-114930047D01*
X178122619Y-114990523D01*
X178364523Y-114990523D01*
X178485476Y-114930047D01*
X178545952Y-114869571D01*
X178606428Y-114748619D01*
X178606428Y-114506714D01*
X178545952Y-114385761D01*
X178485476Y-114325285D01*
X178364523Y-114264809D01*
%TO.C,LED7*%
X93920809Y-114054523D02*
X93316047Y-114054523D01*
X93316047Y-112784523D01*
X94344142Y-113389285D02*
X94767476Y-113389285D01*
X94948904Y-114054523D02*
X94344142Y-114054523D01*
X94344142Y-112784523D01*
X94948904Y-112784523D01*
X95493190Y-114054523D02*
X95493190Y-112784523D01*
X95795571Y-112784523D01*
X95977000Y-112845000D01*
X96097952Y-112965952D01*
X96158428Y-113086904D01*
X96218904Y-113328809D01*
X96218904Y-113510238D01*
X96158428Y-113752142D01*
X96097952Y-113873095D01*
X95977000Y-113994047D01*
X95795571Y-114054523D01*
X95493190Y-114054523D01*
X96642238Y-112784523D02*
X97488904Y-112784523D01*
X96944619Y-114054523D01*
%TO.C,LED6*%
X127102809Y-132654523D02*
X126498047Y-132654523D01*
X126498047Y-131384523D01*
X127526142Y-131989285D02*
X127949476Y-131989285D01*
X128130904Y-132654523D02*
X127526142Y-132654523D01*
X127526142Y-131384523D01*
X128130904Y-131384523D01*
X128675190Y-132654523D02*
X128675190Y-131384523D01*
X128977571Y-131384523D01*
X129159000Y-131445000D01*
X129279952Y-131565952D01*
X129340428Y-131686904D01*
X129400904Y-131928809D01*
X129400904Y-132110238D01*
X129340428Y-132352142D01*
X129279952Y-132473095D01*
X129159000Y-132594047D01*
X128977571Y-132654523D01*
X128675190Y-132654523D01*
X130489476Y-131384523D02*
X130247571Y-131384523D01*
X130126619Y-131445000D01*
X130066142Y-131505476D01*
X129945190Y-131686904D01*
X129884714Y-131928809D01*
X129884714Y-132412619D01*
X129945190Y-132533571D01*
X130005666Y-132594047D01*
X130126619Y-132654523D01*
X130368523Y-132654523D01*
X130489476Y-132594047D01*
X130549952Y-132533571D01*
X130610428Y-132412619D01*
X130610428Y-132110238D01*
X130549952Y-131989285D01*
X130489476Y-131928809D01*
X130368523Y-131868333D01*
X130126619Y-131868333D01*
X130005666Y-131928809D01*
X129945190Y-131989285D01*
X129884714Y-132110238D01*
%TO.C,LED5*%
X143338809Y-123938523D02*
X142734047Y-123938523D01*
X142734047Y-122668523D01*
X143762142Y-123273285D02*
X144185476Y-123273285D01*
X144366904Y-123938523D02*
X143762142Y-123938523D01*
X143762142Y-122668523D01*
X144366904Y-122668523D01*
X144911190Y-123938523D02*
X144911190Y-122668523D01*
X145213571Y-122668523D01*
X145395000Y-122729000D01*
X145515952Y-122849952D01*
X145576428Y-122970904D01*
X145636904Y-123212809D01*
X145636904Y-123394238D01*
X145576428Y-123636142D01*
X145515952Y-123757095D01*
X145395000Y-123878047D01*
X145213571Y-123938523D01*
X144911190Y-123938523D01*
X146785952Y-122668523D02*
X146181190Y-122668523D01*
X146120714Y-123273285D01*
X146181190Y-123212809D01*
X146302142Y-123152333D01*
X146604523Y-123152333D01*
X146725476Y-123212809D01*
X146785952Y-123273285D01*
X146846428Y-123394238D01*
X146846428Y-123696619D01*
X146785952Y-123817571D01*
X146725476Y-123878047D01*
X146604523Y-123938523D01*
X146302142Y-123938523D01*
X146181190Y-123878047D01*
X146120714Y-123817571D01*
%TO.C,LED4*%
X127204809Y-94554523D02*
X126600047Y-94554523D01*
X126600047Y-93284523D01*
X127628142Y-93889285D02*
X128051476Y-93889285D01*
X128232904Y-94554523D02*
X127628142Y-94554523D01*
X127628142Y-93284523D01*
X128232904Y-93284523D01*
X128777190Y-94554523D02*
X128777190Y-93284523D01*
X129079571Y-93284523D01*
X129261000Y-93345000D01*
X129381952Y-93465952D01*
X129442428Y-93586904D01*
X129502904Y-93828809D01*
X129502904Y-94010238D01*
X129442428Y-94252142D01*
X129381952Y-94373095D01*
X129261000Y-94494047D01*
X129079571Y-94554523D01*
X128777190Y-94554523D01*
X130591476Y-93707857D02*
X130591476Y-94554523D01*
X130289095Y-93224047D02*
X129986714Y-94131190D01*
X130772904Y-94131190D01*
%TO.C,LED3*%
X110562809Y-73610523D02*
X109958047Y-73610523D01*
X109958047Y-72340523D01*
X110986142Y-72945285D02*
X111409476Y-72945285D01*
X111590904Y-73610523D02*
X110986142Y-73610523D01*
X110986142Y-72340523D01*
X111590904Y-72340523D01*
X112135190Y-73610523D02*
X112135190Y-72340523D01*
X112437571Y-72340523D01*
X112619000Y-72401000D01*
X112739952Y-72521952D01*
X112800428Y-72642904D01*
X112860904Y-72884809D01*
X112860904Y-73066238D01*
X112800428Y-73308142D01*
X112739952Y-73429095D01*
X112619000Y-73550047D01*
X112437571Y-73610523D01*
X112135190Y-73610523D01*
X113284238Y-72340523D02*
X114070428Y-72340523D01*
X113647095Y-72824333D01*
X113828523Y-72824333D01*
X113949476Y-72884809D01*
X114009952Y-72945285D01*
X114070428Y-73066238D01*
X114070428Y-73368619D01*
X114009952Y-73489571D01*
X113949476Y-73550047D01*
X113828523Y-73610523D01*
X113465666Y-73610523D01*
X113344714Y-73550047D01*
X113284238Y-73489571D01*
%TO.C,LED2*%
X127204809Y-114990523D02*
X126600047Y-114990523D01*
X126600047Y-113720523D01*
X127628142Y-114325285D02*
X128051476Y-114325285D01*
X128232904Y-114990523D02*
X127628142Y-114990523D01*
X127628142Y-113720523D01*
X128232904Y-113720523D01*
X128777190Y-114990523D02*
X128777190Y-113720523D01*
X129079571Y-113720523D01*
X129261000Y-113781000D01*
X129381952Y-113901952D01*
X129442428Y-114022904D01*
X129502904Y-114264809D01*
X129502904Y-114446238D01*
X129442428Y-114688142D01*
X129381952Y-114809095D01*
X129261000Y-114930047D01*
X129079571Y-114990523D01*
X128777190Y-114990523D01*
X129986714Y-113841476D02*
X130047190Y-113781000D01*
X130168142Y-113720523D01*
X130470523Y-113720523D01*
X130591476Y-113781000D01*
X130651952Y-113841476D01*
X130712428Y-113962428D01*
X130712428Y-114083380D01*
X130651952Y-114264809D01*
X129926238Y-114990523D01*
X130712428Y-114990523D01*
%TO.C,LED13*%
X76714047Y-93538523D02*
X76109285Y-93538523D01*
X76109285Y-92268523D01*
X77137380Y-92873285D02*
X77560714Y-92873285D01*
X77742142Y-93538523D02*
X77137380Y-93538523D01*
X77137380Y-92268523D01*
X77742142Y-92268523D01*
X78286428Y-93538523D02*
X78286428Y-92268523D01*
X78588809Y-92268523D01*
X78770238Y-92329000D01*
X78891190Y-92449952D01*
X78951666Y-92570904D01*
X79012142Y-92812809D01*
X79012142Y-92994238D01*
X78951666Y-93236142D01*
X78891190Y-93357095D01*
X78770238Y-93478047D01*
X78588809Y-93538523D01*
X78286428Y-93538523D01*
X80221666Y-93538523D02*
X79495952Y-93538523D01*
X79858809Y-93538523D02*
X79858809Y-92268523D01*
X79737857Y-92449952D01*
X79616904Y-92570904D01*
X79495952Y-92631380D01*
X80645000Y-92268523D02*
X81431190Y-92268523D01*
X81007857Y-92752333D01*
X81189285Y-92752333D01*
X81310238Y-92812809D01*
X81370714Y-92873285D01*
X81431190Y-92994238D01*
X81431190Y-93296619D01*
X81370714Y-93417571D01*
X81310238Y-93478047D01*
X81189285Y-93538523D01*
X80826428Y-93538523D01*
X80705476Y-93478047D01*
X80645000Y-93417571D01*
%TO.C,LED49*%
X158746047Y-106550523D02*
X158141285Y-106550523D01*
X158141285Y-105280523D01*
X159169380Y-105885285D02*
X159592714Y-105885285D01*
X159774142Y-106550523D02*
X159169380Y-106550523D01*
X159169380Y-105280523D01*
X159774142Y-105280523D01*
X160318428Y-106550523D02*
X160318428Y-105280523D01*
X160620809Y-105280523D01*
X160802238Y-105341000D01*
X160923190Y-105461952D01*
X160983666Y-105582904D01*
X161044142Y-105824809D01*
X161044142Y-106006238D01*
X160983666Y-106248142D01*
X160923190Y-106369095D01*
X160802238Y-106490047D01*
X160620809Y-106550523D01*
X160318428Y-106550523D01*
X162132714Y-105703857D02*
X162132714Y-106550523D01*
X161830333Y-105220047D02*
X161527952Y-106127190D01*
X162314142Y-106127190D01*
X162858428Y-106550523D02*
X163100333Y-106550523D01*
X163221285Y-106490047D01*
X163281761Y-106429571D01*
X163402714Y-106248142D01*
X163463190Y-106006238D01*
X163463190Y-105522428D01*
X163402714Y-105401476D01*
X163342238Y-105341000D01*
X163221285Y-105280523D01*
X162979380Y-105280523D01*
X162858428Y-105341000D01*
X162797952Y-105401476D01*
X162737476Y-105522428D01*
X162737476Y-105824809D01*
X162797952Y-105945761D01*
X162858428Y-106006238D01*
X162979380Y-106066714D01*
X163221285Y-106066714D01*
X163342238Y-106006238D01*
X163402714Y-105945761D01*
X163463190Y-105824809D01*
%TO.C,LED48*%
X109958047Y-94554523D02*
X109353285Y-94554523D01*
X109353285Y-93284523D01*
X110381380Y-93889285D02*
X110804714Y-93889285D01*
X110986142Y-94554523D02*
X110381380Y-94554523D01*
X110381380Y-93284523D01*
X110986142Y-93284523D01*
X111530428Y-94554523D02*
X111530428Y-93284523D01*
X111832809Y-93284523D01*
X112014238Y-93345000D01*
X112135190Y-93465952D01*
X112195666Y-93586904D01*
X112256142Y-93828809D01*
X112256142Y-94010238D01*
X112195666Y-94252142D01*
X112135190Y-94373095D01*
X112014238Y-94494047D01*
X111832809Y-94554523D01*
X111530428Y-94554523D01*
X113344714Y-93707857D02*
X113344714Y-94554523D01*
X113042333Y-93224047D02*
X112739952Y-94131190D01*
X113526142Y-94131190D01*
X114191380Y-93828809D02*
X114070428Y-93768333D01*
X114009952Y-93707857D01*
X113949476Y-93586904D01*
X113949476Y-93526428D01*
X114009952Y-93405476D01*
X114070428Y-93345000D01*
X114191380Y-93284523D01*
X114433285Y-93284523D01*
X114554238Y-93345000D01*
X114614714Y-93405476D01*
X114675190Y-93526428D01*
X114675190Y-93586904D01*
X114614714Y-93707857D01*
X114554238Y-93768333D01*
X114433285Y-93828809D01*
X114191380Y-93828809D01*
X114070428Y-93889285D01*
X114009952Y-93949761D01*
X113949476Y-94070714D01*
X113949476Y-94312619D01*
X114009952Y-94433571D01*
X114070428Y-94494047D01*
X114191380Y-94554523D01*
X114433285Y-94554523D01*
X114554238Y-94494047D01*
X114614714Y-94433571D01*
X114675190Y-94312619D01*
X114675190Y-94070714D01*
X114614714Y-93949761D01*
X114554238Y-93889285D01*
X114433285Y-93828809D01*
%TO.C,LED47*%
X93824047Y-84902523D02*
X93219285Y-84902523D01*
X93219285Y-83632523D01*
X94247380Y-84237285D02*
X94670714Y-84237285D01*
X94852142Y-84902523D02*
X94247380Y-84902523D01*
X94247380Y-83632523D01*
X94852142Y-83632523D01*
X95396428Y-84902523D02*
X95396428Y-83632523D01*
X95698809Y-83632523D01*
X95880238Y-83693000D01*
X96001190Y-83813952D01*
X96061666Y-83934904D01*
X96122142Y-84176809D01*
X96122142Y-84358238D01*
X96061666Y-84600142D01*
X96001190Y-84721095D01*
X95880238Y-84842047D01*
X95698809Y-84902523D01*
X95396428Y-84902523D01*
X97210714Y-84055857D02*
X97210714Y-84902523D01*
X96908333Y-83572047D02*
X96605952Y-84479190D01*
X97392142Y-84479190D01*
X97755000Y-83632523D02*
X98601666Y-83632523D01*
X98057380Y-84902523D01*
%TO.C,LED46*%
X76714047Y-113858523D02*
X76109285Y-113858523D01*
X76109285Y-112588523D01*
X77137380Y-113193285D02*
X77560714Y-113193285D01*
X77742142Y-113858523D02*
X77137380Y-113858523D01*
X77137380Y-112588523D01*
X77742142Y-112588523D01*
X78286428Y-113858523D02*
X78286428Y-112588523D01*
X78588809Y-112588523D01*
X78770238Y-112649000D01*
X78891190Y-112769952D01*
X78951666Y-112890904D01*
X79012142Y-113132809D01*
X79012142Y-113314238D01*
X78951666Y-113556142D01*
X78891190Y-113677095D01*
X78770238Y-113798047D01*
X78588809Y-113858523D01*
X78286428Y-113858523D01*
X80100714Y-113011857D02*
X80100714Y-113858523D01*
X79798333Y-112528047D02*
X79495952Y-113435190D01*
X80282142Y-113435190D01*
X81310238Y-112588523D02*
X81068333Y-112588523D01*
X80947380Y-112649000D01*
X80886904Y-112709476D01*
X80765952Y-112890904D01*
X80705476Y-113132809D01*
X80705476Y-113616619D01*
X80765952Y-113737571D01*
X80826428Y-113798047D01*
X80947380Y-113858523D01*
X81189285Y-113858523D01*
X81310238Y-113798047D01*
X81370714Y-113737571D01*
X81431190Y-113616619D01*
X81431190Y-113314238D01*
X81370714Y-113193285D01*
X81310238Y-113132809D01*
X81189285Y-113072333D01*
X80947380Y-113072333D01*
X80826428Y-113132809D01*
X80765952Y-113193285D01*
X80705476Y-113314238D01*
%TO.C,LED45*%
X76836047Y-131870523D02*
X76231285Y-131870523D01*
X76231285Y-130600523D01*
X77259380Y-131205285D02*
X77682714Y-131205285D01*
X77864142Y-131870523D02*
X77259380Y-131870523D01*
X77259380Y-130600523D01*
X77864142Y-130600523D01*
X78408428Y-131870523D02*
X78408428Y-130600523D01*
X78710809Y-130600523D01*
X78892238Y-130661000D01*
X79013190Y-130781952D01*
X79073666Y-130902904D01*
X79134142Y-131144809D01*
X79134142Y-131326238D01*
X79073666Y-131568142D01*
X79013190Y-131689095D01*
X78892238Y-131810047D01*
X78710809Y-131870523D01*
X78408428Y-131870523D01*
X80222714Y-131023857D02*
X80222714Y-131870523D01*
X79920333Y-130540047D02*
X79617952Y-131447190D01*
X80404142Y-131447190D01*
X81492714Y-130600523D02*
X80887952Y-130600523D01*
X80827476Y-131205285D01*
X80887952Y-131144809D01*
X81008904Y-131084333D01*
X81311285Y-131084333D01*
X81432238Y-131144809D01*
X81492714Y-131205285D01*
X81553190Y-131326238D01*
X81553190Y-131628619D01*
X81492714Y-131749571D01*
X81432238Y-131810047D01*
X81311285Y-131870523D01*
X81008904Y-131870523D01*
X80887952Y-131810047D01*
X80827476Y-131749571D01*
%TO.C,LED44*%
X93316047Y-123002523D02*
X92711285Y-123002523D01*
X92711285Y-121732523D01*
X93739380Y-122337285D02*
X94162714Y-122337285D01*
X94344142Y-123002523D02*
X93739380Y-123002523D01*
X93739380Y-121732523D01*
X94344142Y-121732523D01*
X94888428Y-123002523D02*
X94888428Y-121732523D01*
X95190809Y-121732523D01*
X95372238Y-121793000D01*
X95493190Y-121913952D01*
X95553666Y-122034904D01*
X95614142Y-122276809D01*
X95614142Y-122458238D01*
X95553666Y-122700142D01*
X95493190Y-122821095D01*
X95372238Y-122942047D01*
X95190809Y-123002523D01*
X94888428Y-123002523D01*
X96702714Y-122155857D02*
X96702714Y-123002523D01*
X96400333Y-121672047D02*
X96097952Y-122579190D01*
X96884142Y-122579190D01*
X97912238Y-122155857D02*
X97912238Y-123002523D01*
X97609857Y-121672047D02*
X97307476Y-122579190D01*
X98093666Y-122579190D01*
%TO.C,LED43*%
X93824047Y-73610523D02*
X93219285Y-73610523D01*
X93219285Y-72340523D01*
X94247380Y-72945285D02*
X94670714Y-72945285D01*
X94852142Y-73610523D02*
X94247380Y-73610523D01*
X94247380Y-72340523D01*
X94852142Y-72340523D01*
X95396428Y-73610523D02*
X95396428Y-72340523D01*
X95698809Y-72340523D01*
X95880238Y-72401000D01*
X96001190Y-72521952D01*
X96061666Y-72642904D01*
X96122142Y-72884809D01*
X96122142Y-73066238D01*
X96061666Y-73308142D01*
X96001190Y-73429095D01*
X95880238Y-73550047D01*
X95698809Y-73610523D01*
X95396428Y-73610523D01*
X97210714Y-72763857D02*
X97210714Y-73610523D01*
X96908333Y-72280047D02*
X96605952Y-73187190D01*
X97392142Y-73187190D01*
X97755000Y-72340523D02*
X98541190Y-72340523D01*
X98117857Y-72824333D01*
X98299285Y-72824333D01*
X98420238Y-72884809D01*
X98480714Y-72945285D01*
X98541190Y-73066238D01*
X98541190Y-73368619D01*
X98480714Y-73489571D01*
X98420238Y-73550047D01*
X98299285Y-73610523D01*
X97936428Y-73610523D01*
X97815476Y-73550047D01*
X97755000Y-73489571D01*
%TO.C,LED42*%
X93824047Y-94046523D02*
X93219285Y-94046523D01*
X93219285Y-92776523D01*
X94247380Y-93381285D02*
X94670714Y-93381285D01*
X94852142Y-94046523D02*
X94247380Y-94046523D01*
X94247380Y-92776523D01*
X94852142Y-92776523D01*
X95396428Y-94046523D02*
X95396428Y-92776523D01*
X95698809Y-92776523D01*
X95880238Y-92837000D01*
X96001190Y-92957952D01*
X96061666Y-93078904D01*
X96122142Y-93320809D01*
X96122142Y-93502238D01*
X96061666Y-93744142D01*
X96001190Y-93865095D01*
X95880238Y-93986047D01*
X95698809Y-94046523D01*
X95396428Y-94046523D01*
X97210714Y-93199857D02*
X97210714Y-94046523D01*
X96908333Y-92716047D02*
X96605952Y-93623190D01*
X97392142Y-93623190D01*
X97815476Y-92897476D02*
X97875952Y-92837000D01*
X97996904Y-92776523D01*
X98299285Y-92776523D01*
X98420238Y-92837000D01*
X98480714Y-92897476D01*
X98541190Y-93018428D01*
X98541190Y-93139380D01*
X98480714Y-93320809D01*
X97755000Y-94046523D01*
X98541190Y-94046523D01*
%TO.C,LED41*%
X142734047Y-73610523D02*
X142129285Y-73610523D01*
X142129285Y-72340523D01*
X143157380Y-72945285D02*
X143580714Y-72945285D01*
X143762142Y-73610523D02*
X143157380Y-73610523D01*
X143157380Y-72340523D01*
X143762142Y-72340523D01*
X144306428Y-73610523D02*
X144306428Y-72340523D01*
X144608809Y-72340523D01*
X144790238Y-72401000D01*
X144911190Y-72521952D01*
X144971666Y-72642904D01*
X145032142Y-72884809D01*
X145032142Y-73066238D01*
X144971666Y-73308142D01*
X144911190Y-73429095D01*
X144790238Y-73550047D01*
X144608809Y-73610523D01*
X144306428Y-73610523D01*
X146120714Y-72763857D02*
X146120714Y-73610523D01*
X145818333Y-72280047D02*
X145515952Y-73187190D01*
X146302142Y-73187190D01*
X147451190Y-73610523D02*
X146725476Y-73610523D01*
X147088333Y-73610523D02*
X147088333Y-72340523D01*
X146967380Y-72521952D01*
X146846428Y-72642904D01*
X146725476Y-72703380D01*
%TO.C,LED40*%
X109734047Y-114366523D02*
X109129285Y-114366523D01*
X109129285Y-113096523D01*
X110157380Y-113701285D02*
X110580714Y-113701285D01*
X110762142Y-114366523D02*
X110157380Y-114366523D01*
X110157380Y-113096523D01*
X110762142Y-113096523D01*
X111306428Y-114366523D02*
X111306428Y-113096523D01*
X111608809Y-113096523D01*
X111790238Y-113157000D01*
X111911190Y-113277952D01*
X111971666Y-113398904D01*
X112032142Y-113640809D01*
X112032142Y-113822238D01*
X111971666Y-114064142D01*
X111911190Y-114185095D01*
X111790238Y-114306047D01*
X111608809Y-114366523D01*
X111306428Y-114366523D01*
X113120714Y-113519857D02*
X113120714Y-114366523D01*
X112818333Y-113036047D02*
X112515952Y-113943190D01*
X113302142Y-113943190D01*
X114027857Y-113096523D02*
X114148809Y-113096523D01*
X114269761Y-113157000D01*
X114330238Y-113217476D01*
X114390714Y-113338428D01*
X114451190Y-113580333D01*
X114451190Y-113882714D01*
X114390714Y-114124619D01*
X114330238Y-114245571D01*
X114269761Y-114306047D01*
X114148809Y-114366523D01*
X114027857Y-114366523D01*
X113906904Y-114306047D01*
X113846428Y-114245571D01*
X113785952Y-114124619D01*
X113725476Y-113882714D01*
X113725476Y-113580333D01*
X113785952Y-113338428D01*
X113846428Y-113217476D01*
X113906904Y-113157000D01*
X114027857Y-113096523D01*
%TO.C,LED39*%
X109958047Y-85098523D02*
X109353285Y-85098523D01*
X109353285Y-83828523D01*
X110381380Y-84433285D02*
X110804714Y-84433285D01*
X110986142Y-85098523D02*
X110381380Y-85098523D01*
X110381380Y-83828523D01*
X110986142Y-83828523D01*
X111530428Y-85098523D02*
X111530428Y-83828523D01*
X111832809Y-83828523D01*
X112014238Y-83889000D01*
X112135190Y-84009952D01*
X112195666Y-84130904D01*
X112256142Y-84372809D01*
X112256142Y-84554238D01*
X112195666Y-84796142D01*
X112135190Y-84917095D01*
X112014238Y-85038047D01*
X111832809Y-85098523D01*
X111530428Y-85098523D01*
X112679476Y-83828523D02*
X113465666Y-83828523D01*
X113042333Y-84312333D01*
X113223761Y-84312333D01*
X113344714Y-84372809D01*
X113405190Y-84433285D01*
X113465666Y-84554238D01*
X113465666Y-84856619D01*
X113405190Y-84977571D01*
X113344714Y-85038047D01*
X113223761Y-85098523D01*
X112860904Y-85098523D01*
X112739952Y-85038047D01*
X112679476Y-84977571D01*
X114070428Y-85098523D02*
X114312333Y-85098523D01*
X114433285Y-85038047D01*
X114493761Y-84977571D01*
X114614714Y-84796142D01*
X114675190Y-84554238D01*
X114675190Y-84070428D01*
X114614714Y-83949476D01*
X114554238Y-83889000D01*
X114433285Y-83828523D01*
X114191380Y-83828523D01*
X114070428Y-83889000D01*
X114009952Y-83949476D01*
X113949476Y-84070428D01*
X113949476Y-84372809D01*
X114009952Y-84493761D01*
X114070428Y-84554238D01*
X114191380Y-84614714D01*
X114433285Y-84614714D01*
X114554238Y-84554238D01*
X114614714Y-84493761D01*
X114675190Y-84372809D01*
%TO.C,LED25*%
X174250047Y-124526523D02*
X173645285Y-124526523D01*
X173645285Y-123256523D01*
X174673380Y-123861285D02*
X175096714Y-123861285D01*
X175278142Y-124526523D02*
X174673380Y-124526523D01*
X174673380Y-123256523D01*
X175278142Y-123256523D01*
X175822428Y-124526523D02*
X175822428Y-123256523D01*
X176124809Y-123256523D01*
X176306238Y-123317000D01*
X176427190Y-123437952D01*
X176487666Y-123558904D01*
X176548142Y-123800809D01*
X176548142Y-123982238D01*
X176487666Y-124224142D01*
X176427190Y-124345095D01*
X176306238Y-124466047D01*
X176124809Y-124526523D01*
X175822428Y-124526523D01*
X177031952Y-123377476D02*
X177092428Y-123317000D01*
X177213380Y-123256523D01*
X177515761Y-123256523D01*
X177636714Y-123317000D01*
X177697190Y-123377476D01*
X177757666Y-123498428D01*
X177757666Y-123619380D01*
X177697190Y-123800809D01*
X176971476Y-124526523D01*
X177757666Y-124526523D01*
X178906714Y-123256523D02*
X178301952Y-123256523D01*
X178241476Y-123861285D01*
X178301952Y-123800809D01*
X178422904Y-123740333D01*
X178725285Y-123740333D01*
X178846238Y-123800809D01*
X178906714Y-123861285D01*
X178967190Y-123982238D01*
X178967190Y-124284619D01*
X178906714Y-124405571D01*
X178846238Y-124466047D01*
X178725285Y-124526523D01*
X178422904Y-124526523D01*
X178301952Y-124466047D01*
X178241476Y-124405571D01*
%TO.C,LED37*%
X142734047Y-95062523D02*
X142129285Y-95062523D01*
X142129285Y-93792523D01*
X143157380Y-94397285D02*
X143580714Y-94397285D01*
X143762142Y-95062523D02*
X143157380Y-95062523D01*
X143157380Y-93792523D01*
X143762142Y-93792523D01*
X144306428Y-95062523D02*
X144306428Y-93792523D01*
X144608809Y-93792523D01*
X144790238Y-93853000D01*
X144911190Y-93973952D01*
X144971666Y-94094904D01*
X145032142Y-94336809D01*
X145032142Y-94518238D01*
X144971666Y-94760142D01*
X144911190Y-94881095D01*
X144790238Y-95002047D01*
X144608809Y-95062523D01*
X144306428Y-95062523D01*
X145455476Y-93792523D02*
X146241666Y-93792523D01*
X145818333Y-94276333D01*
X145999761Y-94276333D01*
X146120714Y-94336809D01*
X146181190Y-94397285D01*
X146241666Y-94518238D01*
X146241666Y-94820619D01*
X146181190Y-94941571D01*
X146120714Y-95002047D01*
X145999761Y-95062523D01*
X145636904Y-95062523D01*
X145515952Y-95002047D01*
X145455476Y-94941571D01*
X146665000Y-93792523D02*
X147511666Y-93792523D01*
X146967380Y-95062523D01*
%TO.C,LED36*%
X93478047Y-132146523D02*
X92873285Y-132146523D01*
X92873285Y-130876523D01*
X93901380Y-131481285D02*
X94324714Y-131481285D01*
X94506142Y-132146523D02*
X93901380Y-132146523D01*
X93901380Y-130876523D01*
X94506142Y-130876523D01*
X95050428Y-132146523D02*
X95050428Y-130876523D01*
X95352809Y-130876523D01*
X95534238Y-130937000D01*
X95655190Y-131057952D01*
X95715666Y-131178904D01*
X95776142Y-131420809D01*
X95776142Y-131602238D01*
X95715666Y-131844142D01*
X95655190Y-131965095D01*
X95534238Y-132086047D01*
X95352809Y-132146523D01*
X95050428Y-132146523D01*
X96199476Y-130876523D02*
X96985666Y-130876523D01*
X96562333Y-131360333D01*
X96743761Y-131360333D01*
X96864714Y-131420809D01*
X96925190Y-131481285D01*
X96985666Y-131602238D01*
X96985666Y-131904619D01*
X96925190Y-132025571D01*
X96864714Y-132086047D01*
X96743761Y-132146523D01*
X96380904Y-132146523D01*
X96259952Y-132086047D01*
X96199476Y-132025571D01*
X98074238Y-130876523D02*
X97832333Y-130876523D01*
X97711380Y-130937000D01*
X97650904Y-130997476D01*
X97529952Y-131178904D01*
X97469476Y-131420809D01*
X97469476Y-131904619D01*
X97529952Y-132025571D01*
X97590428Y-132086047D01*
X97711380Y-132146523D01*
X97953285Y-132146523D01*
X98074238Y-132086047D01*
X98134714Y-132025571D01*
X98195190Y-131904619D01*
X98195190Y-131602238D01*
X98134714Y-131481285D01*
X98074238Y-131420809D01*
X97953285Y-131360333D01*
X97711380Y-131360333D01*
X97590428Y-131420809D01*
X97529952Y-131481285D01*
X97469476Y-131602238D01*
%TO.C,LED35*%
X109847047Y-132146523D02*
X109242285Y-132146523D01*
X109242285Y-130876523D01*
X110270380Y-131481285D02*
X110693714Y-131481285D01*
X110875142Y-132146523D02*
X110270380Y-132146523D01*
X110270380Y-130876523D01*
X110875142Y-130876523D01*
X111419428Y-132146523D02*
X111419428Y-130876523D01*
X111721809Y-130876523D01*
X111903238Y-130937000D01*
X112024190Y-131057952D01*
X112084666Y-131178904D01*
X112145142Y-131420809D01*
X112145142Y-131602238D01*
X112084666Y-131844142D01*
X112024190Y-131965095D01*
X111903238Y-132086047D01*
X111721809Y-132146523D01*
X111419428Y-132146523D01*
X112568476Y-130876523D02*
X113354666Y-130876523D01*
X112931333Y-131360333D01*
X113112761Y-131360333D01*
X113233714Y-131420809D01*
X113294190Y-131481285D01*
X113354666Y-131602238D01*
X113354666Y-131904619D01*
X113294190Y-132025571D01*
X113233714Y-132086047D01*
X113112761Y-132146523D01*
X112749904Y-132146523D01*
X112628952Y-132086047D01*
X112568476Y-132025571D01*
X114503714Y-130876523D02*
X113898952Y-130876523D01*
X113838476Y-131481285D01*
X113898952Y-131420809D01*
X114019904Y-131360333D01*
X114322285Y-131360333D01*
X114443238Y-131420809D01*
X114503714Y-131481285D01*
X114564190Y-131602238D01*
X114564190Y-131904619D01*
X114503714Y-132025571D01*
X114443238Y-132086047D01*
X114322285Y-132146523D01*
X114019904Y-132146523D01*
X113898952Y-132086047D01*
X113838476Y-132025571D01*
%TO.C,LED34*%
X76787047Y-74198523D02*
X76182285Y-74198523D01*
X76182285Y-72928523D01*
X77210380Y-73533285D02*
X77633714Y-73533285D01*
X77815142Y-74198523D02*
X77210380Y-74198523D01*
X77210380Y-72928523D01*
X77815142Y-72928523D01*
X78359428Y-74198523D02*
X78359428Y-72928523D01*
X78661809Y-72928523D01*
X78843238Y-72989000D01*
X78964190Y-73109952D01*
X79024666Y-73230904D01*
X79085142Y-73472809D01*
X79085142Y-73654238D01*
X79024666Y-73896142D01*
X78964190Y-74017095D01*
X78843238Y-74138047D01*
X78661809Y-74198523D01*
X78359428Y-74198523D01*
X79508476Y-72928523D02*
X80294666Y-72928523D01*
X79871333Y-73412333D01*
X80052761Y-73412333D01*
X80173714Y-73472809D01*
X80234190Y-73533285D01*
X80294666Y-73654238D01*
X80294666Y-73956619D01*
X80234190Y-74077571D01*
X80173714Y-74138047D01*
X80052761Y-74198523D01*
X79689904Y-74198523D01*
X79568952Y-74138047D01*
X79508476Y-74077571D01*
X81383238Y-73351857D02*
X81383238Y-74198523D01*
X81080857Y-72868047D02*
X80778476Y-73775190D01*
X81564666Y-73775190D01*
%TO.C,LED33*%
X93316047Y-104518523D02*
X92711285Y-104518523D01*
X92711285Y-103248523D01*
X93739380Y-103853285D02*
X94162714Y-103853285D01*
X94344142Y-104518523D02*
X93739380Y-104518523D01*
X93739380Y-103248523D01*
X94344142Y-103248523D01*
X94888428Y-104518523D02*
X94888428Y-103248523D01*
X95190809Y-103248523D01*
X95372238Y-103309000D01*
X95493190Y-103429952D01*
X95553666Y-103550904D01*
X95614142Y-103792809D01*
X95614142Y-103974238D01*
X95553666Y-104216142D01*
X95493190Y-104337095D01*
X95372238Y-104458047D01*
X95190809Y-104518523D01*
X94888428Y-104518523D01*
X96037476Y-103248523D02*
X96823666Y-103248523D01*
X96400333Y-103732333D01*
X96581761Y-103732333D01*
X96702714Y-103792809D01*
X96763190Y-103853285D01*
X96823666Y-103974238D01*
X96823666Y-104276619D01*
X96763190Y-104397571D01*
X96702714Y-104458047D01*
X96581761Y-104518523D01*
X96218904Y-104518523D01*
X96097952Y-104458047D01*
X96037476Y-104397571D01*
X97247000Y-103248523D02*
X98033190Y-103248523D01*
X97609857Y-103732333D01*
X97791285Y-103732333D01*
X97912238Y-103792809D01*
X97972714Y-103853285D01*
X98033190Y-103974238D01*
X98033190Y-104276619D01*
X97972714Y-104397571D01*
X97912238Y-104458047D01*
X97791285Y-104518523D01*
X97428428Y-104518523D01*
X97307476Y-104458047D01*
X97247000Y-104397571D01*
%TO.C,LED32*%
X158746047Y-95570523D02*
X158141285Y-95570523D01*
X158141285Y-94300523D01*
X159169380Y-94905285D02*
X159592714Y-94905285D01*
X159774142Y-95570523D02*
X159169380Y-95570523D01*
X159169380Y-94300523D01*
X159774142Y-94300523D01*
X160318428Y-95570523D02*
X160318428Y-94300523D01*
X160620809Y-94300523D01*
X160802238Y-94361000D01*
X160923190Y-94481952D01*
X160983666Y-94602904D01*
X161044142Y-94844809D01*
X161044142Y-95026238D01*
X160983666Y-95268142D01*
X160923190Y-95389095D01*
X160802238Y-95510047D01*
X160620809Y-95570523D01*
X160318428Y-95570523D01*
X161467476Y-94300523D02*
X162253666Y-94300523D01*
X161830333Y-94784333D01*
X162011761Y-94784333D01*
X162132714Y-94844809D01*
X162193190Y-94905285D01*
X162253666Y-95026238D01*
X162253666Y-95328619D01*
X162193190Y-95449571D01*
X162132714Y-95510047D01*
X162011761Y-95570523D01*
X161648904Y-95570523D01*
X161527952Y-95510047D01*
X161467476Y-95449571D01*
X162737476Y-94421476D02*
X162797952Y-94361000D01*
X162918904Y-94300523D01*
X163221285Y-94300523D01*
X163342238Y-94361000D01*
X163402714Y-94421476D01*
X163463190Y-94542428D01*
X163463190Y-94663380D01*
X163402714Y-94844809D01*
X162677000Y-95570523D01*
X163463190Y-95570523D01*
%TO.C,LED31*%
X126600047Y-105534523D02*
X125995285Y-105534523D01*
X125995285Y-104264523D01*
X127023380Y-104869285D02*
X127446714Y-104869285D01*
X127628142Y-105534523D02*
X127023380Y-105534523D01*
X127023380Y-104264523D01*
X127628142Y-104264523D01*
X128172428Y-105534523D02*
X128172428Y-104264523D01*
X128474809Y-104264523D01*
X128656238Y-104325000D01*
X128777190Y-104445952D01*
X128837666Y-104566904D01*
X128898142Y-104808809D01*
X128898142Y-104990238D01*
X128837666Y-105232142D01*
X128777190Y-105353095D01*
X128656238Y-105474047D01*
X128474809Y-105534523D01*
X128172428Y-105534523D01*
X129321476Y-104264523D02*
X130107666Y-104264523D01*
X129684333Y-104748333D01*
X129865761Y-104748333D01*
X129986714Y-104808809D01*
X130047190Y-104869285D01*
X130107666Y-104990238D01*
X130107666Y-105292619D01*
X130047190Y-105413571D01*
X129986714Y-105474047D01*
X129865761Y-105534523D01*
X129502904Y-105534523D01*
X129381952Y-105474047D01*
X129321476Y-105413571D01*
X131317190Y-105534523D02*
X130591476Y-105534523D01*
X130954333Y-105534523D02*
X130954333Y-104264523D01*
X130833380Y-104445952D01*
X130712428Y-104566904D01*
X130591476Y-104627380D01*
%TO.C,LED30*%
X126600047Y-123938523D02*
X125995285Y-123938523D01*
X125995285Y-122668523D01*
X127023380Y-123273285D02*
X127446714Y-123273285D01*
X127628142Y-123938523D02*
X127023380Y-123938523D01*
X127023380Y-122668523D01*
X127628142Y-122668523D01*
X128172428Y-123938523D02*
X128172428Y-122668523D01*
X128474809Y-122668523D01*
X128656238Y-122729000D01*
X128777190Y-122849952D01*
X128837666Y-122970904D01*
X128898142Y-123212809D01*
X128898142Y-123394238D01*
X128837666Y-123636142D01*
X128777190Y-123757095D01*
X128656238Y-123878047D01*
X128474809Y-123938523D01*
X128172428Y-123938523D01*
X129321476Y-122668523D02*
X130107666Y-122668523D01*
X129684333Y-123152333D01*
X129865761Y-123152333D01*
X129986714Y-123212809D01*
X130047190Y-123273285D01*
X130107666Y-123394238D01*
X130107666Y-123696619D01*
X130047190Y-123817571D01*
X129986714Y-123878047D01*
X129865761Y-123938523D01*
X129502904Y-123938523D01*
X129381952Y-123878047D01*
X129321476Y-123817571D01*
X130893857Y-122668523D02*
X131014809Y-122668523D01*
X131135761Y-122729000D01*
X131196238Y-122789476D01*
X131256714Y-122910428D01*
X131317190Y-123152333D01*
X131317190Y-123454714D01*
X131256714Y-123696619D01*
X131196238Y-123817571D01*
X131135761Y-123878047D01*
X131014809Y-123938523D01*
X130893857Y-123938523D01*
X130772904Y-123878047D01*
X130712428Y-123817571D01*
X130651952Y-123696619D01*
X130591476Y-123454714D01*
X130591476Y-123152333D01*
X130651952Y-122910428D01*
X130712428Y-122789476D01*
X130772904Y-122729000D01*
X130893857Y-122668523D01*
%TO.C,LED29*%
X76714047Y-123002523D02*
X76109285Y-123002523D01*
X76109285Y-121732523D01*
X77137380Y-122337285D02*
X77560714Y-122337285D01*
X77742142Y-123002523D02*
X77137380Y-123002523D01*
X77137380Y-121732523D01*
X77742142Y-121732523D01*
X78286428Y-123002523D02*
X78286428Y-121732523D01*
X78588809Y-121732523D01*
X78770238Y-121793000D01*
X78891190Y-121913952D01*
X78951666Y-122034904D01*
X79012142Y-122276809D01*
X79012142Y-122458238D01*
X78951666Y-122700142D01*
X78891190Y-122821095D01*
X78770238Y-122942047D01*
X78588809Y-123002523D01*
X78286428Y-123002523D01*
X79495952Y-121853476D02*
X79556428Y-121793000D01*
X79677380Y-121732523D01*
X79979761Y-121732523D01*
X80100714Y-121793000D01*
X80161190Y-121853476D01*
X80221666Y-121974428D01*
X80221666Y-122095380D01*
X80161190Y-122276809D01*
X79435476Y-123002523D01*
X80221666Y-123002523D01*
X80826428Y-123002523D02*
X81068333Y-123002523D01*
X81189285Y-122942047D01*
X81249761Y-122881571D01*
X81370714Y-122700142D01*
X81431190Y-122458238D01*
X81431190Y-121974428D01*
X81370714Y-121853476D01*
X81310238Y-121793000D01*
X81189285Y-121732523D01*
X80947380Y-121732523D01*
X80826428Y-121793000D01*
X80765952Y-121853476D01*
X80705476Y-121974428D01*
X80705476Y-122276809D01*
X80765952Y-122397761D01*
X80826428Y-122458238D01*
X80947380Y-122518714D01*
X81189285Y-122518714D01*
X81310238Y-122458238D01*
X81370714Y-122397761D01*
X81431190Y-122276809D01*
%TO.C,LED28*%
X126092047Y-73610523D02*
X125487285Y-73610523D01*
X125487285Y-72340523D01*
X126515380Y-72945285D02*
X126938714Y-72945285D01*
X127120142Y-73610523D02*
X126515380Y-73610523D01*
X126515380Y-72340523D01*
X127120142Y-72340523D01*
X127664428Y-73610523D02*
X127664428Y-72340523D01*
X127966809Y-72340523D01*
X128148238Y-72401000D01*
X128269190Y-72521952D01*
X128329666Y-72642904D01*
X128390142Y-72884809D01*
X128390142Y-73066238D01*
X128329666Y-73308142D01*
X128269190Y-73429095D01*
X128148238Y-73550047D01*
X127966809Y-73610523D01*
X127664428Y-73610523D01*
X128873952Y-72461476D02*
X128934428Y-72401000D01*
X129055380Y-72340523D01*
X129357761Y-72340523D01*
X129478714Y-72401000D01*
X129539190Y-72461476D01*
X129599666Y-72582428D01*
X129599666Y-72703380D01*
X129539190Y-72884809D01*
X128813476Y-73610523D01*
X129599666Y-73610523D01*
X130325380Y-72884809D02*
X130204428Y-72824333D01*
X130143952Y-72763857D01*
X130083476Y-72642904D01*
X130083476Y-72582428D01*
X130143952Y-72461476D01*
X130204428Y-72401000D01*
X130325380Y-72340523D01*
X130567285Y-72340523D01*
X130688238Y-72401000D01*
X130748714Y-72461476D01*
X130809190Y-72582428D01*
X130809190Y-72642904D01*
X130748714Y-72763857D01*
X130688238Y-72824333D01*
X130567285Y-72884809D01*
X130325380Y-72884809D01*
X130204428Y-72945285D01*
X130143952Y-73005761D01*
X130083476Y-73126714D01*
X130083476Y-73368619D01*
X130143952Y-73489571D01*
X130204428Y-73550047D01*
X130325380Y-73610523D01*
X130567285Y-73610523D01*
X130688238Y-73550047D01*
X130748714Y-73489571D01*
X130809190Y-73368619D01*
X130809190Y-73126714D01*
X130748714Y-73005761D01*
X130688238Y-72945285D01*
X130567285Y-72884809D01*
%TO.C,LED27*%
X76714047Y-104206523D02*
X76109285Y-104206523D01*
X76109285Y-102936523D01*
X77137380Y-103541285D02*
X77560714Y-103541285D01*
X77742142Y-104206523D02*
X77137380Y-104206523D01*
X77137380Y-102936523D01*
X77742142Y-102936523D01*
X78286428Y-104206523D02*
X78286428Y-102936523D01*
X78588809Y-102936523D01*
X78770238Y-102997000D01*
X78891190Y-103117952D01*
X78951666Y-103238904D01*
X79012142Y-103480809D01*
X79012142Y-103662238D01*
X78951666Y-103904142D01*
X78891190Y-104025095D01*
X78770238Y-104146047D01*
X78588809Y-104206523D01*
X78286428Y-104206523D01*
X79495952Y-103057476D02*
X79556428Y-102997000D01*
X79677380Y-102936523D01*
X79979761Y-102936523D01*
X80100714Y-102997000D01*
X80161190Y-103057476D01*
X80221666Y-103178428D01*
X80221666Y-103299380D01*
X80161190Y-103480809D01*
X79435476Y-104206523D01*
X80221666Y-104206523D01*
X80645000Y-102936523D02*
X81491666Y-102936523D01*
X80947380Y-104206523D01*
%TO.C,LED26*%
X158839047Y-132654523D02*
X158234285Y-132654523D01*
X158234285Y-131384523D01*
X159262380Y-131989285D02*
X159685714Y-131989285D01*
X159867142Y-132654523D02*
X159262380Y-132654523D01*
X159262380Y-131384523D01*
X159867142Y-131384523D01*
X160411428Y-132654523D02*
X160411428Y-131384523D01*
X160713809Y-131384523D01*
X160895238Y-131445000D01*
X161016190Y-131565952D01*
X161076666Y-131686904D01*
X161137142Y-131928809D01*
X161137142Y-132110238D01*
X161076666Y-132352142D01*
X161016190Y-132473095D01*
X160895238Y-132594047D01*
X160713809Y-132654523D01*
X160411428Y-132654523D01*
X161620952Y-131505476D02*
X161681428Y-131445000D01*
X161802380Y-131384523D01*
X162104761Y-131384523D01*
X162225714Y-131445000D01*
X162286190Y-131505476D01*
X162346666Y-131626428D01*
X162346666Y-131747380D01*
X162286190Y-131928809D01*
X161560476Y-132654523D01*
X162346666Y-132654523D01*
X163435238Y-131384523D02*
X163193333Y-131384523D01*
X163072380Y-131445000D01*
X163011904Y-131505476D01*
X162890952Y-131686904D01*
X162830476Y-131928809D01*
X162830476Y-132412619D01*
X162890952Y-132533571D01*
X162951428Y-132594047D01*
X163072380Y-132654523D01*
X163314285Y-132654523D01*
X163435238Y-132594047D01*
X163495714Y-132533571D01*
X163556190Y-132412619D01*
X163556190Y-132110238D01*
X163495714Y-131989285D01*
X163435238Y-131928809D01*
X163314285Y-131868333D01*
X163072380Y-131868333D01*
X162951428Y-131928809D01*
X162890952Y-131989285D01*
X162830476Y-132110238D01*
%TO.C,LED38*%
X110071047Y-123510523D02*
X109466285Y-123510523D01*
X109466285Y-122240523D01*
X110494380Y-122845285D02*
X110917714Y-122845285D01*
X111099142Y-123510523D02*
X110494380Y-123510523D01*
X110494380Y-122240523D01*
X111099142Y-122240523D01*
X111643428Y-123510523D02*
X111643428Y-122240523D01*
X111945809Y-122240523D01*
X112127238Y-122301000D01*
X112248190Y-122421952D01*
X112308666Y-122542904D01*
X112369142Y-122784809D01*
X112369142Y-122966238D01*
X112308666Y-123208142D01*
X112248190Y-123329095D01*
X112127238Y-123450047D01*
X111945809Y-123510523D01*
X111643428Y-123510523D01*
X112792476Y-122240523D02*
X113578666Y-122240523D01*
X113155333Y-122724333D01*
X113336761Y-122724333D01*
X113457714Y-122784809D01*
X113518190Y-122845285D01*
X113578666Y-122966238D01*
X113578666Y-123268619D01*
X113518190Y-123389571D01*
X113457714Y-123450047D01*
X113336761Y-123510523D01*
X112973904Y-123510523D01*
X112852952Y-123450047D01*
X112792476Y-123389571D01*
X114304380Y-122784809D02*
X114183428Y-122724333D01*
X114122952Y-122663857D01*
X114062476Y-122542904D01*
X114062476Y-122482428D01*
X114122952Y-122361476D01*
X114183428Y-122301000D01*
X114304380Y-122240523D01*
X114546285Y-122240523D01*
X114667238Y-122301000D01*
X114727714Y-122361476D01*
X114788190Y-122482428D01*
X114788190Y-122542904D01*
X114727714Y-122663857D01*
X114667238Y-122724333D01*
X114546285Y-122784809D01*
X114304380Y-122784809D01*
X114183428Y-122845285D01*
X114122952Y-122905761D01*
X114062476Y-123026714D01*
X114062476Y-123268619D01*
X114122952Y-123389571D01*
X114183428Y-123450047D01*
X114304380Y-123510523D01*
X114546285Y-123510523D01*
X114667238Y-123450047D01*
X114727714Y-123389571D01*
X114788190Y-123268619D01*
X114788190Y-123026714D01*
X114727714Y-122905761D01*
X114667238Y-122845285D01*
X114546285Y-122784809D01*
D12*
%TO.C,GND*%
X186662000Y-77216000D02*
G75*
G03*
X186662000Y-77216000I-1750000J0D01*
G01*
%TO.C,+VE*%
X186154000Y-129032000D02*
G75*
G03*
X186154000Y-129032000I-1750000J0D01*
G01*
D13*
%TO.C,LED24*%
X159022000Y-115816000D02*
X162427000Y-115816000D01*
X162427000Y-115816000D02*
X162427000Y-115816000D01*
X162427000Y-115816000D02*
X159022000Y-115816000D01*
X159022000Y-115816000D02*
X159022000Y-115816000D01*
X159022000Y-113016000D02*
X162522000Y-113016000D01*
X162522000Y-113016000D02*
X162522000Y-113016000D01*
X162522000Y-113016000D02*
X159022000Y-113016000D01*
X159022000Y-113016000D02*
X159022000Y-113016000D01*
X158127000Y-114416000D02*
X158127000Y-114416000D01*
X158227000Y-114416000D02*
X158227000Y-114416000D01*
X158127000Y-114416000D02*
X158127000Y-114416000D01*
X158127000Y-114416000D02*
G75*
G03*
X158227000Y-114416000I50000J0D01*
G01*
X158227000Y-114416000D02*
G75*
G03*
X158127000Y-114416000I-50000J0D01*
G01*
X158127000Y-114416000D02*
G75*
G03*
X158227000Y-114416000I50000J0D01*
G01*
%TO.C,LED23*%
X159022000Y-124764000D02*
X162427000Y-124764000D01*
X162427000Y-124764000D02*
X162427000Y-124764000D01*
X162427000Y-124764000D02*
X159022000Y-124764000D01*
X159022000Y-124764000D02*
X159022000Y-124764000D01*
X159022000Y-121964000D02*
X162522000Y-121964000D01*
X162522000Y-121964000D02*
X162522000Y-121964000D01*
X162522000Y-121964000D02*
X159022000Y-121964000D01*
X159022000Y-121964000D02*
X159022000Y-121964000D01*
X158127000Y-123364000D02*
X158127000Y-123364000D01*
X158227000Y-123364000D02*
X158227000Y-123364000D01*
X158127000Y-123364000D02*
X158127000Y-123364000D01*
X158127000Y-123364000D02*
G75*
G03*
X158227000Y-123364000I50000J0D01*
G01*
X158227000Y-123364000D02*
G75*
G03*
X158127000Y-123364000I-50000J0D01*
G01*
X158127000Y-123364000D02*
G75*
G03*
X158227000Y-123364000I50000J0D01*
G01*
%TO.C,LED22*%
X174355000Y-133988000D02*
X177760000Y-133988000D01*
X177760000Y-133988000D02*
X177760000Y-133988000D01*
X177760000Y-133988000D02*
X174355000Y-133988000D01*
X174355000Y-133988000D02*
X174355000Y-133988000D01*
X174355000Y-131188000D02*
X177855000Y-131188000D01*
X177855000Y-131188000D02*
X177855000Y-131188000D01*
X177855000Y-131188000D02*
X174355000Y-131188000D01*
X174355000Y-131188000D02*
X174355000Y-131188000D01*
X173460000Y-132588000D02*
X173460000Y-132588000D01*
X173560000Y-132588000D02*
X173560000Y-132588000D01*
X173460000Y-132588000D02*
X173460000Y-132588000D01*
X173460000Y-132588000D02*
G75*
G03*
X173560000Y-132588000I50000J0D01*
G01*
X173560000Y-132588000D02*
G75*
G03*
X173460000Y-132588000I-50000J0D01*
G01*
X173460000Y-132588000D02*
G75*
G03*
X173560000Y-132588000I50000J0D01*
G01*
%TO.C,LED21*%
X159022000Y-74436000D02*
X162427000Y-74436000D01*
X162427000Y-74436000D02*
X162427000Y-74436000D01*
X162427000Y-74436000D02*
X159022000Y-74436000D01*
X159022000Y-74436000D02*
X159022000Y-74436000D01*
X159022000Y-71636000D02*
X162522000Y-71636000D01*
X162522000Y-71636000D02*
X162522000Y-71636000D01*
X162522000Y-71636000D02*
X159022000Y-71636000D01*
X159022000Y-71636000D02*
X159022000Y-71636000D01*
X158127000Y-73036000D02*
X158127000Y-73036000D01*
X158227000Y-73036000D02*
X158227000Y-73036000D01*
X158127000Y-73036000D02*
X158127000Y-73036000D01*
X158127000Y-73036000D02*
G75*
G03*
X158227000Y-73036000I50000J0D01*
G01*
X158227000Y-73036000D02*
G75*
G03*
X158127000Y-73036000I-50000J0D01*
G01*
X158127000Y-73036000D02*
G75*
G03*
X158227000Y-73036000I50000J0D01*
G01*
%TO.C,LED20*%
X159022000Y-86940000D02*
X162427000Y-86940000D01*
X162427000Y-86940000D02*
X162427000Y-86940000D01*
X162427000Y-86940000D02*
X159022000Y-86940000D01*
X159022000Y-86940000D02*
X159022000Y-86940000D01*
X159022000Y-84140000D02*
X162522000Y-84140000D01*
X162522000Y-84140000D02*
X162522000Y-84140000D01*
X162522000Y-84140000D02*
X159022000Y-84140000D01*
X159022000Y-84140000D02*
X159022000Y-84140000D01*
X158127000Y-85540000D02*
X158127000Y-85540000D01*
X158227000Y-85540000D02*
X158227000Y-85540000D01*
X158127000Y-85540000D02*
X158127000Y-85540000D01*
X158127000Y-85540000D02*
G75*
G03*
X158227000Y-85540000I50000J0D01*
G01*
X158227000Y-85540000D02*
G75*
G03*
X158127000Y-85540000I-50000J0D01*
G01*
X158127000Y-85540000D02*
G75*
G03*
X158227000Y-85540000I50000J0D01*
G01*
%TO.C,LED19*%
X143030000Y-133480000D02*
X146435000Y-133480000D01*
X146435000Y-133480000D02*
X146435000Y-133480000D01*
X146435000Y-133480000D02*
X143030000Y-133480000D01*
X143030000Y-133480000D02*
X143030000Y-133480000D01*
X143030000Y-130680000D02*
X146530000Y-130680000D01*
X146530000Y-130680000D02*
X146530000Y-130680000D01*
X146530000Y-130680000D02*
X143030000Y-130680000D01*
X143030000Y-130680000D02*
X143030000Y-130680000D01*
X142135000Y-132080000D02*
X142135000Y-132080000D01*
X142235000Y-132080000D02*
X142235000Y-132080000D01*
X142135000Y-132080000D02*
X142135000Y-132080000D01*
X142135000Y-132080000D02*
G75*
G03*
X142235000Y-132080000I50000J0D01*
G01*
X142235000Y-132080000D02*
G75*
G03*
X142135000Y-132080000I-50000J0D01*
G01*
X142135000Y-132080000D02*
G75*
G03*
X142235000Y-132080000I50000J0D01*
G01*
%TO.C,LED18*%
X142115000Y-105468000D02*
G75*
G03*
X142215000Y-105468000I50000J0D01*
G01*
X142215000Y-105468000D02*
G75*
G03*
X142115000Y-105468000I-50000J0D01*
G01*
X142115000Y-105468000D02*
G75*
G03*
X142215000Y-105468000I50000J0D01*
G01*
X142115000Y-105468000D02*
X142115000Y-105468000D01*
X142215000Y-105468000D02*
X142215000Y-105468000D01*
X142115000Y-105468000D02*
X142115000Y-105468000D01*
X143010000Y-104068000D02*
X143010000Y-104068000D01*
X146510000Y-104068000D02*
X143010000Y-104068000D01*
X146510000Y-104068000D02*
X146510000Y-104068000D01*
X143010000Y-104068000D02*
X146510000Y-104068000D01*
X143010000Y-106868000D02*
X143010000Y-106868000D01*
X146415000Y-106868000D02*
X143010000Y-106868000D01*
X146415000Y-106868000D02*
X146415000Y-106868000D01*
X143010000Y-106868000D02*
X146415000Y-106868000D01*
%TO.C,LED17*%
X76990000Y-85220000D02*
X80395000Y-85220000D01*
X80395000Y-85220000D02*
X80395000Y-85220000D01*
X80395000Y-85220000D02*
X76990000Y-85220000D01*
X76990000Y-85220000D02*
X76990000Y-85220000D01*
X76990000Y-82420000D02*
X80490000Y-82420000D01*
X80490000Y-82420000D02*
X80490000Y-82420000D01*
X80490000Y-82420000D02*
X76990000Y-82420000D01*
X76990000Y-82420000D02*
X76990000Y-82420000D01*
X76095000Y-83820000D02*
X76095000Y-83820000D01*
X76195000Y-83820000D02*
X76195000Y-83820000D01*
X76095000Y-83820000D02*
X76095000Y-83820000D01*
X76095000Y-83820000D02*
G75*
G03*
X76195000Y-83820000I50000J0D01*
G01*
X76195000Y-83820000D02*
G75*
G03*
X76095000Y-83820000I-50000J0D01*
G01*
X76095000Y-83820000D02*
G75*
G03*
X76195000Y-83820000I50000J0D01*
G01*
%TO.C,LED16*%
X174770000Y-107376000D02*
X178175000Y-107376000D01*
X178175000Y-107376000D02*
X178175000Y-107376000D01*
X178175000Y-107376000D02*
X174770000Y-107376000D01*
X174770000Y-107376000D02*
X174770000Y-107376000D01*
X174770000Y-104576000D02*
X178270000Y-104576000D01*
X178270000Y-104576000D02*
X178270000Y-104576000D01*
X178270000Y-104576000D02*
X174770000Y-104576000D01*
X174770000Y-104576000D02*
X174770000Y-104576000D01*
X173875000Y-105976000D02*
X173875000Y-105976000D01*
X173975000Y-105976000D02*
X173975000Y-105976000D01*
X173875000Y-105976000D02*
X173875000Y-105976000D01*
X173875000Y-105976000D02*
G75*
G03*
X173975000Y-105976000I50000J0D01*
G01*
X173975000Y-105976000D02*
G75*
G03*
X173875000Y-105976000I-50000J0D01*
G01*
X173875000Y-105976000D02*
G75*
G03*
X173975000Y-105976000I50000J0D01*
G01*
%TO.C,LED15*%
X143010000Y-86432000D02*
X146415000Y-86432000D01*
X146415000Y-86432000D02*
X146415000Y-86432000D01*
X146415000Y-86432000D02*
X143010000Y-86432000D01*
X143010000Y-86432000D02*
X143010000Y-86432000D01*
X143010000Y-83632000D02*
X146510000Y-83632000D01*
X146510000Y-83632000D02*
X146510000Y-83632000D01*
X146510000Y-83632000D02*
X143010000Y-83632000D01*
X143010000Y-83632000D02*
X143010000Y-83632000D01*
X142115000Y-85032000D02*
X142115000Y-85032000D01*
X142215000Y-85032000D02*
X142215000Y-85032000D01*
X142115000Y-85032000D02*
X142115000Y-85032000D01*
X142115000Y-85032000D02*
G75*
G03*
X142215000Y-85032000I50000J0D01*
G01*
X142215000Y-85032000D02*
G75*
G03*
X142115000Y-85032000I-50000J0D01*
G01*
X142115000Y-85032000D02*
G75*
G03*
X142215000Y-85032000I50000J0D01*
G01*
%TO.C,LED14*%
X142115000Y-114416000D02*
G75*
G03*
X142215000Y-114416000I50000J0D01*
G01*
X142215000Y-114416000D02*
G75*
G03*
X142115000Y-114416000I-50000J0D01*
G01*
X142115000Y-114416000D02*
G75*
G03*
X142215000Y-114416000I50000J0D01*
G01*
X142115000Y-114416000D02*
X142115000Y-114416000D01*
X142215000Y-114416000D02*
X142215000Y-114416000D01*
X142115000Y-114416000D02*
X142115000Y-114416000D01*
X143010000Y-113016000D02*
X143010000Y-113016000D01*
X146510000Y-113016000D02*
X143010000Y-113016000D01*
X146510000Y-113016000D02*
X146510000Y-113016000D01*
X143010000Y-113016000D02*
X146510000Y-113016000D01*
X143010000Y-115816000D02*
X143010000Y-115816000D01*
X146415000Y-115816000D02*
X143010000Y-115816000D01*
X146415000Y-115816000D02*
X146415000Y-115816000D01*
X143010000Y-115816000D02*
X146415000Y-115816000D01*
%TO.C,LED1*%
X174770000Y-74436000D02*
X178175000Y-74436000D01*
X178175000Y-74436000D02*
X178175000Y-74436000D01*
X178175000Y-74436000D02*
X174770000Y-74436000D01*
X174770000Y-74436000D02*
X174770000Y-74436000D01*
X174770000Y-71636000D02*
X178270000Y-71636000D01*
X178270000Y-71636000D02*
X178270000Y-71636000D01*
X178270000Y-71636000D02*
X174770000Y-71636000D01*
X174770000Y-71636000D02*
X174770000Y-71636000D01*
X173875000Y-73036000D02*
X173875000Y-73036000D01*
X173975000Y-73036000D02*
X173975000Y-73036000D01*
X173875000Y-73036000D02*
X173875000Y-73036000D01*
X173875000Y-73036000D02*
G75*
G03*
X173975000Y-73036000I50000J0D01*
G01*
X173975000Y-73036000D02*
G75*
G03*
X173875000Y-73036000I-50000J0D01*
G01*
X173875000Y-73036000D02*
G75*
G03*
X173975000Y-73036000I50000J0D01*
G01*
%TO.C,LED12*%
X174770000Y-96396000D02*
X178175000Y-96396000D01*
X178175000Y-96396000D02*
X178175000Y-96396000D01*
X178175000Y-96396000D02*
X174770000Y-96396000D01*
X174770000Y-96396000D02*
X174770000Y-96396000D01*
X174770000Y-93596000D02*
X178270000Y-93596000D01*
X178270000Y-93596000D02*
X178270000Y-93596000D01*
X178270000Y-93596000D02*
X174770000Y-93596000D01*
X174770000Y-93596000D02*
X174770000Y-93596000D01*
X173875000Y-94996000D02*
X173875000Y-94996000D01*
X173975000Y-94996000D02*
X173975000Y-94996000D01*
X173875000Y-94996000D02*
X173875000Y-94996000D01*
X173875000Y-94996000D02*
G75*
G03*
X173975000Y-94996000I50000J0D01*
G01*
X173975000Y-94996000D02*
G75*
G03*
X173875000Y-94996000I-50000J0D01*
G01*
X173875000Y-94996000D02*
G75*
G03*
X173975000Y-94996000I50000J0D01*
G01*
%TO.C,LED11*%
X110347000Y-105852000D02*
X113752000Y-105852000D01*
X113752000Y-105852000D02*
X113752000Y-105852000D01*
X113752000Y-105852000D02*
X110347000Y-105852000D01*
X110347000Y-105852000D02*
X110347000Y-105852000D01*
X110347000Y-103052000D02*
X113847000Y-103052000D01*
X113847000Y-103052000D02*
X113847000Y-103052000D01*
X113847000Y-103052000D02*
X110347000Y-103052000D01*
X110347000Y-103052000D02*
X110347000Y-103052000D01*
X109452000Y-104452000D02*
X109452000Y-104452000D01*
X109552000Y-104452000D02*
X109552000Y-104452000D01*
X109452000Y-104452000D02*
X109452000Y-104452000D01*
X109452000Y-104452000D02*
G75*
G03*
X109552000Y-104452000I50000J0D01*
G01*
X109552000Y-104452000D02*
G75*
G03*
X109452000Y-104452000I-50000J0D01*
G01*
X109452000Y-104452000D02*
G75*
G03*
X109552000Y-104452000I50000J0D01*
G01*
%TO.C,LED10*%
X126368000Y-86432000D02*
X129773000Y-86432000D01*
X129773000Y-86432000D02*
X129773000Y-86432000D01*
X129773000Y-86432000D02*
X126368000Y-86432000D01*
X126368000Y-86432000D02*
X126368000Y-86432000D01*
X126368000Y-83632000D02*
X129868000Y-83632000D01*
X129868000Y-83632000D02*
X129868000Y-83632000D01*
X129868000Y-83632000D02*
X126368000Y-83632000D01*
X126368000Y-83632000D02*
X126368000Y-83632000D01*
X125473000Y-85032000D02*
X125473000Y-85032000D01*
X125573000Y-85032000D02*
X125573000Y-85032000D01*
X125473000Y-85032000D02*
X125473000Y-85032000D01*
X125473000Y-85032000D02*
G75*
G03*
X125573000Y-85032000I50000J0D01*
G01*
X125573000Y-85032000D02*
G75*
G03*
X125473000Y-85032000I-50000J0D01*
G01*
X125473000Y-85032000D02*
G75*
G03*
X125573000Y-85032000I50000J0D01*
G01*
%TO.C,LED9*%
X174770000Y-87252000D02*
X178175000Y-87252000D01*
X178175000Y-87252000D02*
X178175000Y-87252000D01*
X178175000Y-87252000D02*
X174770000Y-87252000D01*
X174770000Y-87252000D02*
X174770000Y-87252000D01*
X174770000Y-84452000D02*
X178270000Y-84452000D01*
X178270000Y-84452000D02*
X178270000Y-84452000D01*
X178270000Y-84452000D02*
X174770000Y-84452000D01*
X174770000Y-84452000D02*
X174770000Y-84452000D01*
X173875000Y-85852000D02*
X173875000Y-85852000D01*
X173975000Y-85852000D02*
X173975000Y-85852000D01*
X173875000Y-85852000D02*
X173875000Y-85852000D01*
X173875000Y-85852000D02*
G75*
G03*
X173975000Y-85852000I50000J0D01*
G01*
X173975000Y-85852000D02*
G75*
G03*
X173875000Y-85852000I-50000J0D01*
G01*
X173875000Y-85852000D02*
G75*
G03*
X173975000Y-85852000I50000J0D01*
G01*
%TO.C,LED8*%
X174770000Y-115816000D02*
X178175000Y-115816000D01*
X178175000Y-115816000D02*
X178175000Y-115816000D01*
X178175000Y-115816000D02*
X174770000Y-115816000D01*
X174770000Y-115816000D02*
X174770000Y-115816000D01*
X174770000Y-113016000D02*
X178270000Y-113016000D01*
X178270000Y-113016000D02*
X178270000Y-113016000D01*
X178270000Y-113016000D02*
X174770000Y-113016000D01*
X174770000Y-113016000D02*
X174770000Y-113016000D01*
X173875000Y-114416000D02*
X173875000Y-114416000D01*
X173975000Y-114416000D02*
X173975000Y-114416000D01*
X173875000Y-114416000D02*
X173875000Y-114416000D01*
X173875000Y-114416000D02*
G75*
G03*
X173975000Y-114416000I50000J0D01*
G01*
X173975000Y-114416000D02*
G75*
G03*
X173875000Y-114416000I-50000J0D01*
G01*
X173875000Y-114416000D02*
G75*
G03*
X173975000Y-114416000I50000J0D01*
G01*
%TO.C,LED7*%
X93592000Y-114880000D02*
X96997000Y-114880000D01*
X96997000Y-114880000D02*
X96997000Y-114880000D01*
X96997000Y-114880000D02*
X93592000Y-114880000D01*
X93592000Y-114880000D02*
X93592000Y-114880000D01*
X93592000Y-112080000D02*
X97092000Y-112080000D01*
X97092000Y-112080000D02*
X97092000Y-112080000D01*
X97092000Y-112080000D02*
X93592000Y-112080000D01*
X93592000Y-112080000D02*
X93592000Y-112080000D01*
X92697000Y-113480000D02*
X92697000Y-113480000D01*
X92797000Y-113480000D02*
X92797000Y-113480000D01*
X92697000Y-113480000D02*
X92697000Y-113480000D01*
X92697000Y-113480000D02*
G75*
G03*
X92797000Y-113480000I50000J0D01*
G01*
X92797000Y-113480000D02*
G75*
G03*
X92697000Y-113480000I-50000J0D01*
G01*
X92697000Y-113480000D02*
G75*
G03*
X92797000Y-113480000I50000J0D01*
G01*
%TO.C,LED6*%
X126774000Y-133480000D02*
X130179000Y-133480000D01*
X130179000Y-133480000D02*
X130179000Y-133480000D01*
X130179000Y-133480000D02*
X126774000Y-133480000D01*
X126774000Y-133480000D02*
X126774000Y-133480000D01*
X126774000Y-130680000D02*
X130274000Y-130680000D01*
X130274000Y-130680000D02*
X130274000Y-130680000D01*
X130274000Y-130680000D02*
X126774000Y-130680000D01*
X126774000Y-130680000D02*
X126774000Y-130680000D01*
X125879000Y-132080000D02*
X125879000Y-132080000D01*
X125979000Y-132080000D02*
X125979000Y-132080000D01*
X125879000Y-132080000D02*
X125879000Y-132080000D01*
X125879000Y-132080000D02*
G75*
G03*
X125979000Y-132080000I50000J0D01*
G01*
X125979000Y-132080000D02*
G75*
G03*
X125879000Y-132080000I-50000J0D01*
G01*
X125879000Y-132080000D02*
G75*
G03*
X125979000Y-132080000I50000J0D01*
G01*
%TO.C,LED5*%
X142115000Y-123364000D02*
G75*
G03*
X142215000Y-123364000I50000J0D01*
G01*
X142215000Y-123364000D02*
G75*
G03*
X142115000Y-123364000I-50000J0D01*
G01*
X142115000Y-123364000D02*
G75*
G03*
X142215000Y-123364000I50000J0D01*
G01*
X142115000Y-123364000D02*
X142115000Y-123364000D01*
X142215000Y-123364000D02*
X142215000Y-123364000D01*
X142115000Y-123364000D02*
X142115000Y-123364000D01*
X143010000Y-121964000D02*
X143010000Y-121964000D01*
X146510000Y-121964000D02*
X143010000Y-121964000D01*
X146510000Y-121964000D02*
X146510000Y-121964000D01*
X143010000Y-121964000D02*
X146510000Y-121964000D01*
X143010000Y-124764000D02*
X143010000Y-124764000D01*
X146415000Y-124764000D02*
X143010000Y-124764000D01*
X146415000Y-124764000D02*
X146415000Y-124764000D01*
X143010000Y-124764000D02*
X146415000Y-124764000D01*
%TO.C,LED4*%
X126876000Y-95380000D02*
X130281000Y-95380000D01*
X130281000Y-95380000D02*
X130281000Y-95380000D01*
X130281000Y-95380000D02*
X126876000Y-95380000D01*
X126876000Y-95380000D02*
X126876000Y-95380000D01*
X126876000Y-92580000D02*
X130376000Y-92580000D01*
X130376000Y-92580000D02*
X130376000Y-92580000D01*
X130376000Y-92580000D02*
X126876000Y-92580000D01*
X126876000Y-92580000D02*
X126876000Y-92580000D01*
X125981000Y-93980000D02*
X125981000Y-93980000D01*
X126081000Y-93980000D02*
X126081000Y-93980000D01*
X125981000Y-93980000D02*
X125981000Y-93980000D01*
X125981000Y-93980000D02*
G75*
G03*
X126081000Y-93980000I50000J0D01*
G01*
X126081000Y-93980000D02*
G75*
G03*
X125981000Y-93980000I-50000J0D01*
G01*
X125981000Y-93980000D02*
G75*
G03*
X126081000Y-93980000I50000J0D01*
G01*
%TO.C,LED3*%
X110234000Y-74436000D02*
X113639000Y-74436000D01*
X113639000Y-74436000D02*
X113639000Y-74436000D01*
X113639000Y-74436000D02*
X110234000Y-74436000D01*
X110234000Y-74436000D02*
X110234000Y-74436000D01*
X110234000Y-71636000D02*
X113734000Y-71636000D01*
X113734000Y-71636000D02*
X113734000Y-71636000D01*
X113734000Y-71636000D02*
X110234000Y-71636000D01*
X110234000Y-71636000D02*
X110234000Y-71636000D01*
X109339000Y-73036000D02*
X109339000Y-73036000D01*
X109439000Y-73036000D02*
X109439000Y-73036000D01*
X109339000Y-73036000D02*
X109339000Y-73036000D01*
X109339000Y-73036000D02*
G75*
G03*
X109439000Y-73036000I50000J0D01*
G01*
X109439000Y-73036000D02*
G75*
G03*
X109339000Y-73036000I-50000J0D01*
G01*
X109339000Y-73036000D02*
G75*
G03*
X109439000Y-73036000I50000J0D01*
G01*
%TO.C,LED2*%
X126876000Y-115816000D02*
X130281000Y-115816000D01*
X130281000Y-115816000D02*
X130281000Y-115816000D01*
X130281000Y-115816000D02*
X126876000Y-115816000D01*
X126876000Y-115816000D02*
X126876000Y-115816000D01*
X126876000Y-113016000D02*
X130376000Y-113016000D01*
X130376000Y-113016000D02*
X130376000Y-113016000D01*
X130376000Y-113016000D02*
X126876000Y-113016000D01*
X126876000Y-113016000D02*
X126876000Y-113016000D01*
X125981000Y-114416000D02*
X125981000Y-114416000D01*
X126081000Y-114416000D02*
X126081000Y-114416000D01*
X125981000Y-114416000D02*
X125981000Y-114416000D01*
X125981000Y-114416000D02*
G75*
G03*
X126081000Y-114416000I50000J0D01*
G01*
X126081000Y-114416000D02*
G75*
G03*
X125981000Y-114416000I-50000J0D01*
G01*
X125981000Y-114416000D02*
G75*
G03*
X126081000Y-114416000I50000J0D01*
G01*
%TO.C,LED13*%
X76990000Y-94364000D02*
X80395000Y-94364000D01*
X80395000Y-94364000D02*
X80395000Y-94364000D01*
X80395000Y-94364000D02*
X76990000Y-94364000D01*
X76990000Y-94364000D02*
X76990000Y-94364000D01*
X76990000Y-91564000D02*
X80490000Y-91564000D01*
X80490000Y-91564000D02*
X80490000Y-91564000D01*
X80490000Y-91564000D02*
X76990000Y-91564000D01*
X76990000Y-91564000D02*
X76990000Y-91564000D01*
X76095000Y-92964000D02*
X76095000Y-92964000D01*
X76195000Y-92964000D02*
X76195000Y-92964000D01*
X76095000Y-92964000D02*
X76095000Y-92964000D01*
X76095000Y-92964000D02*
G75*
G03*
X76195000Y-92964000I50000J0D01*
G01*
X76195000Y-92964000D02*
G75*
G03*
X76095000Y-92964000I-50000J0D01*
G01*
X76095000Y-92964000D02*
G75*
G03*
X76195000Y-92964000I50000J0D01*
G01*
%TO.C,LED49*%
X159022000Y-107376000D02*
X162427000Y-107376000D01*
X162427000Y-107376000D02*
X162427000Y-107376000D01*
X162427000Y-107376000D02*
X159022000Y-107376000D01*
X159022000Y-107376000D02*
X159022000Y-107376000D01*
X159022000Y-104576000D02*
X162522000Y-104576000D01*
X162522000Y-104576000D02*
X162522000Y-104576000D01*
X162522000Y-104576000D02*
X159022000Y-104576000D01*
X159022000Y-104576000D02*
X159022000Y-104576000D01*
X158127000Y-105976000D02*
X158127000Y-105976000D01*
X158227000Y-105976000D02*
X158227000Y-105976000D01*
X158127000Y-105976000D02*
X158127000Y-105976000D01*
X158127000Y-105976000D02*
G75*
G03*
X158227000Y-105976000I50000J0D01*
G01*
X158227000Y-105976000D02*
G75*
G03*
X158127000Y-105976000I-50000J0D01*
G01*
X158127000Y-105976000D02*
G75*
G03*
X158227000Y-105976000I50000J0D01*
G01*
%TO.C,LED48*%
X110234000Y-95380000D02*
X113639000Y-95380000D01*
X113639000Y-95380000D02*
X113639000Y-95380000D01*
X113639000Y-95380000D02*
X110234000Y-95380000D01*
X110234000Y-95380000D02*
X110234000Y-95380000D01*
X110234000Y-92580000D02*
X113734000Y-92580000D01*
X113734000Y-92580000D02*
X113734000Y-92580000D01*
X113734000Y-92580000D02*
X110234000Y-92580000D01*
X110234000Y-92580000D02*
X110234000Y-92580000D01*
X109339000Y-93980000D02*
X109339000Y-93980000D01*
X109439000Y-93980000D02*
X109439000Y-93980000D01*
X109339000Y-93980000D02*
X109339000Y-93980000D01*
X109339000Y-93980000D02*
G75*
G03*
X109439000Y-93980000I50000J0D01*
G01*
X109439000Y-93980000D02*
G75*
G03*
X109339000Y-93980000I-50000J0D01*
G01*
X109339000Y-93980000D02*
G75*
G03*
X109439000Y-93980000I50000J0D01*
G01*
%TO.C,LED47*%
X94100000Y-85728000D02*
X97505000Y-85728000D01*
X97505000Y-85728000D02*
X97505000Y-85728000D01*
X97505000Y-85728000D02*
X94100000Y-85728000D01*
X94100000Y-85728000D02*
X94100000Y-85728000D01*
X94100000Y-82928000D02*
X97600000Y-82928000D01*
X97600000Y-82928000D02*
X97600000Y-82928000D01*
X97600000Y-82928000D02*
X94100000Y-82928000D01*
X94100000Y-82928000D02*
X94100000Y-82928000D01*
X93205000Y-84328000D02*
X93205000Y-84328000D01*
X93305000Y-84328000D02*
X93305000Y-84328000D01*
X93205000Y-84328000D02*
X93205000Y-84328000D01*
X93205000Y-84328000D02*
G75*
G03*
X93305000Y-84328000I50000J0D01*
G01*
X93305000Y-84328000D02*
G75*
G03*
X93205000Y-84328000I-50000J0D01*
G01*
X93205000Y-84328000D02*
G75*
G03*
X93305000Y-84328000I50000J0D01*
G01*
%TO.C,LED46*%
X76990000Y-114684000D02*
X80395000Y-114684000D01*
X80395000Y-114684000D02*
X80395000Y-114684000D01*
X80395000Y-114684000D02*
X76990000Y-114684000D01*
X76990000Y-114684000D02*
X76990000Y-114684000D01*
X76990000Y-111884000D02*
X80490000Y-111884000D01*
X80490000Y-111884000D02*
X80490000Y-111884000D01*
X80490000Y-111884000D02*
X76990000Y-111884000D01*
X76990000Y-111884000D02*
X76990000Y-111884000D01*
X76095000Y-113284000D02*
X76095000Y-113284000D01*
X76195000Y-113284000D02*
X76195000Y-113284000D01*
X76095000Y-113284000D02*
X76095000Y-113284000D01*
X76095000Y-113284000D02*
G75*
G03*
X76195000Y-113284000I50000J0D01*
G01*
X76195000Y-113284000D02*
G75*
G03*
X76095000Y-113284000I-50000J0D01*
G01*
X76095000Y-113284000D02*
G75*
G03*
X76195000Y-113284000I50000J0D01*
G01*
%TO.C,LED45*%
X77112000Y-132696000D02*
X80517000Y-132696000D01*
X80517000Y-132696000D02*
X80517000Y-132696000D01*
X80517000Y-132696000D02*
X77112000Y-132696000D01*
X77112000Y-132696000D02*
X77112000Y-132696000D01*
X77112000Y-129896000D02*
X80612000Y-129896000D01*
X80612000Y-129896000D02*
X80612000Y-129896000D01*
X80612000Y-129896000D02*
X77112000Y-129896000D01*
X77112000Y-129896000D02*
X77112000Y-129896000D01*
X76217000Y-131296000D02*
X76217000Y-131296000D01*
X76317000Y-131296000D02*
X76317000Y-131296000D01*
X76217000Y-131296000D02*
X76217000Y-131296000D01*
X76217000Y-131296000D02*
G75*
G03*
X76317000Y-131296000I50000J0D01*
G01*
X76317000Y-131296000D02*
G75*
G03*
X76217000Y-131296000I-50000J0D01*
G01*
X76217000Y-131296000D02*
G75*
G03*
X76317000Y-131296000I50000J0D01*
G01*
%TO.C,LED44*%
X93592000Y-123828000D02*
X96997000Y-123828000D01*
X96997000Y-123828000D02*
X96997000Y-123828000D01*
X96997000Y-123828000D02*
X93592000Y-123828000D01*
X93592000Y-123828000D02*
X93592000Y-123828000D01*
X93592000Y-121028000D02*
X97092000Y-121028000D01*
X97092000Y-121028000D02*
X97092000Y-121028000D01*
X97092000Y-121028000D02*
X93592000Y-121028000D01*
X93592000Y-121028000D02*
X93592000Y-121028000D01*
X92697000Y-122428000D02*
X92697000Y-122428000D01*
X92797000Y-122428000D02*
X92797000Y-122428000D01*
X92697000Y-122428000D02*
X92697000Y-122428000D01*
X92697000Y-122428000D02*
G75*
G03*
X92797000Y-122428000I50000J0D01*
G01*
X92797000Y-122428000D02*
G75*
G03*
X92697000Y-122428000I-50000J0D01*
G01*
X92697000Y-122428000D02*
G75*
G03*
X92797000Y-122428000I50000J0D01*
G01*
%TO.C,LED43*%
X94100000Y-74436000D02*
X97505000Y-74436000D01*
X97505000Y-74436000D02*
X97505000Y-74436000D01*
X97505000Y-74436000D02*
X94100000Y-74436000D01*
X94100000Y-74436000D02*
X94100000Y-74436000D01*
X94100000Y-71636000D02*
X97600000Y-71636000D01*
X97600000Y-71636000D02*
X97600000Y-71636000D01*
X97600000Y-71636000D02*
X94100000Y-71636000D01*
X94100000Y-71636000D02*
X94100000Y-71636000D01*
X93205000Y-73036000D02*
X93205000Y-73036000D01*
X93305000Y-73036000D02*
X93305000Y-73036000D01*
X93205000Y-73036000D02*
X93205000Y-73036000D01*
X93205000Y-73036000D02*
G75*
G03*
X93305000Y-73036000I50000J0D01*
G01*
X93305000Y-73036000D02*
G75*
G03*
X93205000Y-73036000I-50000J0D01*
G01*
X93205000Y-73036000D02*
G75*
G03*
X93305000Y-73036000I50000J0D01*
G01*
%TO.C,LED42*%
X94100000Y-94872000D02*
X97505000Y-94872000D01*
X97505000Y-94872000D02*
X97505000Y-94872000D01*
X97505000Y-94872000D02*
X94100000Y-94872000D01*
X94100000Y-94872000D02*
X94100000Y-94872000D01*
X94100000Y-92072000D02*
X97600000Y-92072000D01*
X97600000Y-92072000D02*
X97600000Y-92072000D01*
X97600000Y-92072000D02*
X94100000Y-92072000D01*
X94100000Y-92072000D02*
X94100000Y-92072000D01*
X93205000Y-93472000D02*
X93205000Y-93472000D01*
X93305000Y-93472000D02*
X93305000Y-93472000D01*
X93205000Y-93472000D02*
X93205000Y-93472000D01*
X93205000Y-93472000D02*
G75*
G03*
X93305000Y-93472000I50000J0D01*
G01*
X93305000Y-93472000D02*
G75*
G03*
X93205000Y-93472000I-50000J0D01*
G01*
X93205000Y-93472000D02*
G75*
G03*
X93305000Y-93472000I50000J0D01*
G01*
%TO.C,LED41*%
X143010000Y-74436000D02*
X146415000Y-74436000D01*
X146415000Y-74436000D02*
X146415000Y-74436000D01*
X146415000Y-74436000D02*
X143010000Y-74436000D01*
X143010000Y-74436000D02*
X143010000Y-74436000D01*
X143010000Y-71636000D02*
X146510000Y-71636000D01*
X146510000Y-71636000D02*
X146510000Y-71636000D01*
X146510000Y-71636000D02*
X143010000Y-71636000D01*
X143010000Y-71636000D02*
X143010000Y-71636000D01*
X142115000Y-73036000D02*
X142115000Y-73036000D01*
X142215000Y-73036000D02*
X142215000Y-73036000D01*
X142115000Y-73036000D02*
X142115000Y-73036000D01*
X142115000Y-73036000D02*
G75*
G03*
X142215000Y-73036000I50000J0D01*
G01*
X142215000Y-73036000D02*
G75*
G03*
X142115000Y-73036000I-50000J0D01*
G01*
X142115000Y-73036000D02*
G75*
G03*
X142215000Y-73036000I50000J0D01*
G01*
%TO.C,LED40*%
X110010000Y-115192000D02*
X113415000Y-115192000D01*
X113415000Y-115192000D02*
X113415000Y-115192000D01*
X113415000Y-115192000D02*
X110010000Y-115192000D01*
X110010000Y-115192000D02*
X110010000Y-115192000D01*
X110010000Y-112392000D02*
X113510000Y-112392000D01*
X113510000Y-112392000D02*
X113510000Y-112392000D01*
X113510000Y-112392000D02*
X110010000Y-112392000D01*
X110010000Y-112392000D02*
X110010000Y-112392000D01*
X109115000Y-113792000D02*
X109115000Y-113792000D01*
X109215000Y-113792000D02*
X109215000Y-113792000D01*
X109115000Y-113792000D02*
X109115000Y-113792000D01*
X109115000Y-113792000D02*
G75*
G03*
X109215000Y-113792000I50000J0D01*
G01*
X109215000Y-113792000D02*
G75*
G03*
X109115000Y-113792000I-50000J0D01*
G01*
X109115000Y-113792000D02*
G75*
G03*
X109215000Y-113792000I50000J0D01*
G01*
%TO.C,LED39*%
X110234000Y-85924000D02*
X113639000Y-85924000D01*
X113639000Y-85924000D02*
X113639000Y-85924000D01*
X113639000Y-85924000D02*
X110234000Y-85924000D01*
X110234000Y-85924000D02*
X110234000Y-85924000D01*
X110234000Y-83124000D02*
X113734000Y-83124000D01*
X113734000Y-83124000D02*
X113734000Y-83124000D01*
X113734000Y-83124000D02*
X110234000Y-83124000D01*
X110234000Y-83124000D02*
X110234000Y-83124000D01*
X109339000Y-84524000D02*
X109339000Y-84524000D01*
X109439000Y-84524000D02*
X109439000Y-84524000D01*
X109339000Y-84524000D02*
X109339000Y-84524000D01*
X109339000Y-84524000D02*
G75*
G03*
X109439000Y-84524000I50000J0D01*
G01*
X109439000Y-84524000D02*
G75*
G03*
X109339000Y-84524000I-50000J0D01*
G01*
X109339000Y-84524000D02*
G75*
G03*
X109439000Y-84524000I50000J0D01*
G01*
%TO.C,LED25*%
X174526000Y-125352000D02*
X177931000Y-125352000D01*
X177931000Y-125352000D02*
X177931000Y-125352000D01*
X177931000Y-125352000D02*
X174526000Y-125352000D01*
X174526000Y-125352000D02*
X174526000Y-125352000D01*
X174526000Y-122552000D02*
X178026000Y-122552000D01*
X178026000Y-122552000D02*
X178026000Y-122552000D01*
X178026000Y-122552000D02*
X174526000Y-122552000D01*
X174526000Y-122552000D02*
X174526000Y-122552000D01*
X173631000Y-123952000D02*
X173631000Y-123952000D01*
X173731000Y-123952000D02*
X173731000Y-123952000D01*
X173631000Y-123952000D02*
X173631000Y-123952000D01*
X173631000Y-123952000D02*
G75*
G03*
X173731000Y-123952000I50000J0D01*
G01*
X173731000Y-123952000D02*
G75*
G03*
X173631000Y-123952000I-50000J0D01*
G01*
X173631000Y-123952000D02*
G75*
G03*
X173731000Y-123952000I50000J0D01*
G01*
%TO.C,LED37*%
X143010000Y-95888000D02*
X146415000Y-95888000D01*
X146415000Y-95888000D02*
X146415000Y-95888000D01*
X146415000Y-95888000D02*
X143010000Y-95888000D01*
X143010000Y-95888000D02*
X143010000Y-95888000D01*
X143010000Y-93088000D02*
X146510000Y-93088000D01*
X146510000Y-93088000D02*
X146510000Y-93088000D01*
X146510000Y-93088000D02*
X143010000Y-93088000D01*
X143010000Y-93088000D02*
X143010000Y-93088000D01*
X142115000Y-94488000D02*
X142115000Y-94488000D01*
X142215000Y-94488000D02*
X142215000Y-94488000D01*
X142115000Y-94488000D02*
X142115000Y-94488000D01*
X142115000Y-94488000D02*
G75*
G03*
X142215000Y-94488000I50000J0D01*
G01*
X142215000Y-94488000D02*
G75*
G03*
X142115000Y-94488000I-50000J0D01*
G01*
X142115000Y-94488000D02*
G75*
G03*
X142215000Y-94488000I50000J0D01*
G01*
%TO.C,LED36*%
X93754000Y-132972000D02*
X97159000Y-132972000D01*
X97159000Y-132972000D02*
X97159000Y-132972000D01*
X97159000Y-132972000D02*
X93754000Y-132972000D01*
X93754000Y-132972000D02*
X93754000Y-132972000D01*
X93754000Y-130172000D02*
X97254000Y-130172000D01*
X97254000Y-130172000D02*
X97254000Y-130172000D01*
X97254000Y-130172000D02*
X93754000Y-130172000D01*
X93754000Y-130172000D02*
X93754000Y-130172000D01*
X92859000Y-131572000D02*
X92859000Y-131572000D01*
X92959000Y-131572000D02*
X92959000Y-131572000D01*
X92859000Y-131572000D02*
X92859000Y-131572000D01*
X92859000Y-131572000D02*
G75*
G03*
X92959000Y-131572000I50000J0D01*
G01*
X92959000Y-131572000D02*
G75*
G03*
X92859000Y-131572000I-50000J0D01*
G01*
X92859000Y-131572000D02*
G75*
G03*
X92959000Y-131572000I50000J0D01*
G01*
%TO.C,LED35*%
X109228000Y-131572000D02*
G75*
G03*
X109328000Y-131572000I50000J0D01*
G01*
X109328000Y-131572000D02*
G75*
G03*
X109228000Y-131572000I-50000J0D01*
G01*
X109228000Y-131572000D02*
G75*
G03*
X109328000Y-131572000I50000J0D01*
G01*
X109228000Y-131572000D02*
X109228000Y-131572000D01*
X109328000Y-131572000D02*
X109328000Y-131572000D01*
X109228000Y-131572000D02*
X109228000Y-131572000D01*
X110123000Y-130172000D02*
X110123000Y-130172000D01*
X113623000Y-130172000D02*
X110123000Y-130172000D01*
X113623000Y-130172000D02*
X113623000Y-130172000D01*
X110123000Y-130172000D02*
X113623000Y-130172000D01*
X110123000Y-132972000D02*
X110123000Y-132972000D01*
X113528000Y-132972000D02*
X110123000Y-132972000D01*
X113528000Y-132972000D02*
X113528000Y-132972000D01*
X110123000Y-132972000D02*
X113528000Y-132972000D01*
%TO.C,LED34*%
X77063000Y-75024000D02*
X80468000Y-75024000D01*
X80468000Y-75024000D02*
X80468000Y-75024000D01*
X80468000Y-75024000D02*
X77063000Y-75024000D01*
X77063000Y-75024000D02*
X77063000Y-75024000D01*
X77063000Y-72224000D02*
X80563000Y-72224000D01*
X80563000Y-72224000D02*
X80563000Y-72224000D01*
X80563000Y-72224000D02*
X77063000Y-72224000D01*
X77063000Y-72224000D02*
X77063000Y-72224000D01*
X76168000Y-73624000D02*
X76168000Y-73624000D01*
X76268000Y-73624000D02*
X76268000Y-73624000D01*
X76168000Y-73624000D02*
X76168000Y-73624000D01*
X76168000Y-73624000D02*
G75*
G03*
X76268000Y-73624000I50000J0D01*
G01*
X76268000Y-73624000D02*
G75*
G03*
X76168000Y-73624000I-50000J0D01*
G01*
X76168000Y-73624000D02*
G75*
G03*
X76268000Y-73624000I50000J0D01*
G01*
%TO.C,LED33*%
X93592000Y-105344000D02*
X96997000Y-105344000D01*
X96997000Y-105344000D02*
X96997000Y-105344000D01*
X96997000Y-105344000D02*
X93592000Y-105344000D01*
X93592000Y-105344000D02*
X93592000Y-105344000D01*
X93592000Y-102544000D02*
X97092000Y-102544000D01*
X97092000Y-102544000D02*
X97092000Y-102544000D01*
X97092000Y-102544000D02*
X93592000Y-102544000D01*
X93592000Y-102544000D02*
X93592000Y-102544000D01*
X92697000Y-103944000D02*
X92697000Y-103944000D01*
X92797000Y-103944000D02*
X92797000Y-103944000D01*
X92697000Y-103944000D02*
X92697000Y-103944000D01*
X92697000Y-103944000D02*
G75*
G03*
X92797000Y-103944000I50000J0D01*
G01*
X92797000Y-103944000D02*
G75*
G03*
X92697000Y-103944000I-50000J0D01*
G01*
X92697000Y-103944000D02*
G75*
G03*
X92797000Y-103944000I50000J0D01*
G01*
%TO.C,LED32*%
X159022000Y-96396000D02*
X162427000Y-96396000D01*
X162427000Y-96396000D02*
X162427000Y-96396000D01*
X162427000Y-96396000D02*
X159022000Y-96396000D01*
X159022000Y-96396000D02*
X159022000Y-96396000D01*
X159022000Y-93596000D02*
X162522000Y-93596000D01*
X162522000Y-93596000D02*
X162522000Y-93596000D01*
X162522000Y-93596000D02*
X159022000Y-93596000D01*
X159022000Y-93596000D02*
X159022000Y-93596000D01*
X158127000Y-94996000D02*
X158127000Y-94996000D01*
X158227000Y-94996000D02*
X158227000Y-94996000D01*
X158127000Y-94996000D02*
X158127000Y-94996000D01*
X158127000Y-94996000D02*
G75*
G03*
X158227000Y-94996000I50000J0D01*
G01*
X158227000Y-94996000D02*
G75*
G03*
X158127000Y-94996000I-50000J0D01*
G01*
X158127000Y-94996000D02*
G75*
G03*
X158227000Y-94996000I50000J0D01*
G01*
%TO.C,LED31*%
X126876000Y-106360000D02*
X130281000Y-106360000D01*
X130281000Y-106360000D02*
X130281000Y-106360000D01*
X130281000Y-106360000D02*
X126876000Y-106360000D01*
X126876000Y-106360000D02*
X126876000Y-106360000D01*
X126876000Y-103560000D02*
X130376000Y-103560000D01*
X130376000Y-103560000D02*
X130376000Y-103560000D01*
X130376000Y-103560000D02*
X126876000Y-103560000D01*
X126876000Y-103560000D02*
X126876000Y-103560000D01*
X125981000Y-104960000D02*
X125981000Y-104960000D01*
X126081000Y-104960000D02*
X126081000Y-104960000D01*
X125981000Y-104960000D02*
X125981000Y-104960000D01*
X125981000Y-104960000D02*
G75*
G03*
X126081000Y-104960000I50000J0D01*
G01*
X126081000Y-104960000D02*
G75*
G03*
X125981000Y-104960000I-50000J0D01*
G01*
X125981000Y-104960000D02*
G75*
G03*
X126081000Y-104960000I50000J0D01*
G01*
%TO.C,LED30*%
X126876000Y-124764000D02*
X130281000Y-124764000D01*
X130281000Y-124764000D02*
X130281000Y-124764000D01*
X130281000Y-124764000D02*
X126876000Y-124764000D01*
X126876000Y-124764000D02*
X126876000Y-124764000D01*
X126876000Y-121964000D02*
X130376000Y-121964000D01*
X130376000Y-121964000D02*
X130376000Y-121964000D01*
X130376000Y-121964000D02*
X126876000Y-121964000D01*
X126876000Y-121964000D02*
X126876000Y-121964000D01*
X125981000Y-123364000D02*
X125981000Y-123364000D01*
X126081000Y-123364000D02*
X126081000Y-123364000D01*
X125981000Y-123364000D02*
X125981000Y-123364000D01*
X125981000Y-123364000D02*
G75*
G03*
X126081000Y-123364000I50000J0D01*
G01*
X126081000Y-123364000D02*
G75*
G03*
X125981000Y-123364000I-50000J0D01*
G01*
X125981000Y-123364000D02*
G75*
G03*
X126081000Y-123364000I50000J0D01*
G01*
%TO.C,LED29*%
X76990000Y-123828000D02*
X80395000Y-123828000D01*
X80395000Y-123828000D02*
X80395000Y-123828000D01*
X80395000Y-123828000D02*
X76990000Y-123828000D01*
X76990000Y-123828000D02*
X76990000Y-123828000D01*
X76990000Y-121028000D02*
X80490000Y-121028000D01*
X80490000Y-121028000D02*
X80490000Y-121028000D01*
X80490000Y-121028000D02*
X76990000Y-121028000D01*
X76990000Y-121028000D02*
X76990000Y-121028000D01*
X76095000Y-122428000D02*
X76095000Y-122428000D01*
X76195000Y-122428000D02*
X76195000Y-122428000D01*
X76095000Y-122428000D02*
X76095000Y-122428000D01*
X76095000Y-122428000D02*
G75*
G03*
X76195000Y-122428000I50000J0D01*
G01*
X76195000Y-122428000D02*
G75*
G03*
X76095000Y-122428000I-50000J0D01*
G01*
X76095000Y-122428000D02*
G75*
G03*
X76195000Y-122428000I50000J0D01*
G01*
%TO.C,LED28*%
X126368000Y-74436000D02*
X129773000Y-74436000D01*
X129773000Y-74436000D02*
X129773000Y-74436000D01*
X129773000Y-74436000D02*
X126368000Y-74436000D01*
X126368000Y-74436000D02*
X126368000Y-74436000D01*
X126368000Y-71636000D02*
X129868000Y-71636000D01*
X129868000Y-71636000D02*
X129868000Y-71636000D01*
X129868000Y-71636000D02*
X126368000Y-71636000D01*
X126368000Y-71636000D02*
X126368000Y-71636000D01*
X125473000Y-73036000D02*
X125473000Y-73036000D01*
X125573000Y-73036000D02*
X125573000Y-73036000D01*
X125473000Y-73036000D02*
X125473000Y-73036000D01*
X125473000Y-73036000D02*
G75*
G03*
X125573000Y-73036000I50000J0D01*
G01*
X125573000Y-73036000D02*
G75*
G03*
X125473000Y-73036000I-50000J0D01*
G01*
X125473000Y-73036000D02*
G75*
G03*
X125573000Y-73036000I50000J0D01*
G01*
%TO.C,LED27*%
X76990000Y-105032000D02*
X80395000Y-105032000D01*
X80395000Y-105032000D02*
X80395000Y-105032000D01*
X80395000Y-105032000D02*
X76990000Y-105032000D01*
X76990000Y-105032000D02*
X76990000Y-105032000D01*
X76990000Y-102232000D02*
X80490000Y-102232000D01*
X80490000Y-102232000D02*
X80490000Y-102232000D01*
X80490000Y-102232000D02*
X76990000Y-102232000D01*
X76990000Y-102232000D02*
X76990000Y-102232000D01*
X76095000Y-103632000D02*
X76095000Y-103632000D01*
X76195000Y-103632000D02*
X76195000Y-103632000D01*
X76095000Y-103632000D02*
X76095000Y-103632000D01*
X76095000Y-103632000D02*
G75*
G03*
X76195000Y-103632000I50000J0D01*
G01*
X76195000Y-103632000D02*
G75*
G03*
X76095000Y-103632000I-50000J0D01*
G01*
X76095000Y-103632000D02*
G75*
G03*
X76195000Y-103632000I50000J0D01*
G01*
%TO.C,LED26*%
X159115000Y-133480000D02*
X162520000Y-133480000D01*
X162520000Y-133480000D02*
X162520000Y-133480000D01*
X162520000Y-133480000D02*
X159115000Y-133480000D01*
X159115000Y-133480000D02*
X159115000Y-133480000D01*
X159115000Y-130680000D02*
X162615000Y-130680000D01*
X162615000Y-130680000D02*
X162615000Y-130680000D01*
X162615000Y-130680000D02*
X159115000Y-130680000D01*
X159115000Y-130680000D02*
X159115000Y-130680000D01*
X158220000Y-132080000D02*
X158220000Y-132080000D01*
X158320000Y-132080000D02*
X158320000Y-132080000D01*
X158220000Y-132080000D02*
X158220000Y-132080000D01*
X158220000Y-132080000D02*
G75*
G03*
X158320000Y-132080000I50000J0D01*
G01*
X158320000Y-132080000D02*
G75*
G03*
X158220000Y-132080000I-50000J0D01*
G01*
X158220000Y-132080000D02*
G75*
G03*
X158320000Y-132080000I50000J0D01*
G01*
%TO.C,LED38*%
X110347000Y-124336000D02*
X113752000Y-124336000D01*
X113752000Y-124336000D02*
X113752000Y-124336000D01*
X113752000Y-124336000D02*
X110347000Y-124336000D01*
X110347000Y-124336000D02*
X110347000Y-124336000D01*
X110347000Y-121536000D02*
X113847000Y-121536000D01*
X113847000Y-121536000D02*
X113847000Y-121536000D01*
X113847000Y-121536000D02*
X110347000Y-121536000D01*
X110347000Y-121536000D02*
X110347000Y-121536000D01*
X109452000Y-122936000D02*
X109452000Y-122936000D01*
X109552000Y-122936000D02*
X109552000Y-122936000D01*
X109452000Y-122936000D02*
X109452000Y-122936000D01*
X109452000Y-122936000D02*
G75*
G03*
X109552000Y-122936000I50000J0D01*
G01*
X109552000Y-122936000D02*
G75*
G03*
X109452000Y-122936000I-50000J0D01*
G01*
X109452000Y-122936000D02*
G75*
G03*
X109552000Y-122936000I50000J0D01*
G01*
%TD*%
M02*
